<svg width="962" height="837" viewBox="0 0 962 837" fill="none" xmlns="http://www.w3.org/2000/svg">
<g clip-path="url(#clip0_54249_1205)">
<path d="M722.726 360.449C636.737 419.995 396.19 439.313 269.92 360.449C261.525 370.356 205.965 436.056 205.965 446.016L364.234 453.3L348.991 653.639H444.696V661.562L348.388 670.272L259.572 666.71C257.53 677.075 259.572 832.158 259.572 838.697C259.572 846.869 807.604 861.988 797.833 838.697C790.485 821.183 784.679 661.562 772.179 614.756C766.34 610.006 761.459 604.968 757.784 600.374C737.365 571.391 768.514 479.613 804.699 479.613C804.665 478.378 804.634 477.146 804.606 475.916C801.245 451.716 750.701 377.084 722.726 360.449Z" fill="#2B4F8D"/>
<path d="M804.699 479.613C768.514 479.613 737.365 571.391 757.784 600.374C761.459 604.968 766.34 610.006 772.179 614.756C755.514 576.486 760.014 525.486 804.699 479.613Z" fill="white"/>
<path d="M714.833 351.79C597.721 421.043 371.076 407.265 276.324 351.79L269.92 360.449C396.19 439.313 636.737 419.995 722.726 360.449C724.705 359.079 716.645 354.401 714.833 351.79Z" fill="white"/>
<path d="M364.234 453.3L205.965 446.016L0.908569 440.85L8.83183 646.848H38.2588C37.5802 623.919 56.479 610.982 81.014 606.209C100.124 602.492 122.653 603.727 142.014 609.051C169.357 616.57 190.381 632.244 186.533 653.639L348.388 661.562L348.991 653.639L364.234 453.3Z" fill="#828282"/>
<path d="M348.388 661.562L444.696 653.639H348.991L348.388 661.562Z" fill="#737373"/>
<path d="M348.388 661.562L186.533 653.639C185.459 656.722 183.551 659.351 180.994 661.562L259.572 666.71L348.388 670.272V661.562Z" fill="#535353"/>
<path d="M38.2588 646.848H8.83183V653.639H39.9877L39.973 653.61L39.9426 653.548L39.9196 653.501C38.9019 651.41 38.3281 649.192 38.2588 646.848Z" fill="#535353"/>
<path d="M348.388 661.562V670.272L444.696 661.562V653.639L348.388 661.562Z" fill="#535353"/>
<path d="M276.324 351.79C281.195 334.759 289.018 312.957 289.018 285.266C289.018 257.576 269.387 259.444 259.572 263.839C265.066 260.543 278.646 251.313 289.018 240.764C301.982 227.578 225.758 218.248 244.736 218.248C263.714 218.248 289.018 196.107 289.018 170.803C289.018 150.559 289.018 48.4993 289.018 0L356.818 61.1063C407.913 54.5134 544.18 49.1229 608.062 61.1063C615.391 62.4813 679.584 0 684.816 0L696.354 170.803C698.552 186.618 709.47 221.848 739.781 221.848C745.292 221.848 726.003 240.764 706.243 240.764C708.99 248.456 716.133 263.839 722.726 263.839C730.967 263.839 696.354 270.07 696.354 285.266C696.354 313.471 718.598 349.564 714.833 351.79M276.324 351.79C371.076 407.265 597.721 421.043 714.833 351.79M276.324 351.79L269.92 360.449M714.833 351.79C716.645 354.401 724.705 359.079 722.726 360.449M269.92 360.449C396.19 439.313 636.737 419.995 722.726 360.449M269.92 360.449C261.525 370.356 205.965 436.056 205.965 446.016M722.726 360.449C750.701 377.084 801.245 451.716 804.606 475.916M205.965 446.016L364.234 453.3L348.991 653.639M205.965 446.016L0.908569 440.85L8.83183 646.848M348.388 661.562L186.533 653.639M348.388 661.562V670.272M348.388 661.562L444.696 653.639M348.388 661.562L348.991 653.639M186.533 653.639C185.459 656.722 183.551 659.351 180.994 661.562M186.533 653.639C190.381 632.244 169.357 616.57 142.014 609.051M38.2588 646.848H8.83183M38.2588 646.848C37.5802 623.919 56.479 610.982 81.014 606.209M38.2588 646.848C38.3281 649.192 38.9019 651.41 39.9196 653.501M8.83183 646.848V653.639H39.9877M39.9877 653.639C39.9828 653.629 39.9779 653.62 39.973 653.61M39.9877 653.639L39.973 653.61M180.994 661.562L259.572 666.71M180.994 661.562C170.364 687.687 55.4529 684.875 39.973 653.61M348.388 670.272L444.696 661.562V653.639M348.388 670.272L259.572 666.71M444.696 653.639H348.991M804.699 479.613C768.514 479.613 737.365 571.391 757.784 600.374C761.459 604.968 766.34 610.006 772.179 614.756M804.699 479.613C804.665 478.378 804.634 477.146 804.606 475.916M804.699 479.613C804.837 478.566 804.802 477.327 804.606 475.916M804.699 479.613C760.014 525.486 755.514 576.486 772.179 614.756M908.494 425.603C916.385 460.036 921.771 562.614 873.565 610.247C834.931 648.421 795.745 633.927 772.179 614.756M908.494 425.603C932.324 425.603 942.712 413.083 946.629 409.432C951.108 405.257 954.712 399.221 957.275 392.198M908.494 425.603C901.514 425.603 891.567 426.919 881.952 421.957M958.78 345.179C953.138 326.766 937.883 311.902 908.494 311.902C894.578 311.902 887.026 315.656 884.965 311.902C879.901 302.68 886.792 262.284 865.524 256.208C827.407 245.317 801.598 345.713 804.606 475.916M958.78 345.179C953.878 351.546 938.622 363.514 916.814 360.449M958.78 345.179C963.357 360.117 962.406 378.135 957.275 392.198M957.275 392.198C953.158 397.517 939.729 407.387 918.944 404.321M259.572 666.71C257.53 677.075 259.572 832.158 259.572 838.697C259.572 846.869 807.604 861.988 797.833 838.697C790.485 821.183 784.679 661.562 772.179 614.756M81.014 606.209C76.014 612.986 72.514 631.486 78.014 638.486M81.014 606.209C100.124 602.492 122.653 603.727 142.014 609.051M142.014 609.051C140.014 613.863 130.514 629.986 138.014 642.486M39.9196 653.501L39.9426 653.548M39.9196 653.501C39.9272 653.516 39.9349 653.532 39.9426 653.548M39.973 653.61L39.9426 653.548M39.973 653.61C39.9629 653.589 39.9527 653.569 39.9426 653.548" stroke="black" stroke-width="6"/>
<ellipse cx="427.052" cy="181.529" rx="6.00159" ry="6.49507" fill="black"/>
<ellipse cx="555.941" cy="181.529" rx="6.00159" ry="6.49507" fill="black"/>
<path d="M501.424 213.694C501.424 217.281 496.457 217.181 493.291 218.779C490.753 216.963 485.517 217.281 485.517 213.694C485.854 212.532 486.726 211.619 493.291 211.619C500.82 211.619 499.343 212.096 501.424 213.694Z" fill="black"/>
<path d="M443.743 229.529C448.081 230.331 452.514 225.119 452.514 230.331C452.514 238.431 492.621 240.244 493.814 218.498" stroke="black" stroke-width="6"/>
<path d="M543.883 229.529C539.545 230.331 535.112 225.119 535.112 230.331C535.112 238.431 495.005 240.244 493.812 218.498" stroke="black" stroke-width="6"/>
<g clip-path="url(#clip1_54249_1205)">
<rect x="245.213" y="541.96" width="73.6906" height="73.6906" rx="10" transform="rotate(-19.2322 245.213 541.96)" fill="#F1F1F1"/>
<g clip-path="url(#clip2_54249_1205)">
<path d="M298.886 550.271C298.83 550.291 298.779 550.325 298.739 550.37C298.7 550.416 298.674 550.471 298.662 550.529C298.651 550.588 298.655 550.648 298.675 550.705L301.526 558.879C301.554 558.959 301.542 559.044 301.486 559.109C301.458 559.14 301.423 559.165 301.383 559.178C301.343 559.192 301.3 559.195 301.259 559.188L299.643 558.889C299.525 558.867 299.403 558.876 299.289 558.915C299.176 558.955 299.074 559.024 298.996 559.114L294.688 564.069C294.527 564.254 294.482 564.518 294.562 564.748L296.709 570.903C296.789 571.133 296.985 571.301 297.226 571.345L303.681 572.546C303.799 572.568 303.921 572.559 304.035 572.519C304.149 572.479 304.25 572.411 304.328 572.32L308.636 567.365C308.715 567.275 308.768 567.165 308.791 567.048C308.814 566.93 308.805 566.809 308.766 566.697L303.413 551.353C303.372 551.238 303.302 551.135 303.208 551.056C303.115 550.977 303.002 550.924 302.881 550.903L299.059 550.247C298.999 550.236 298.942 550.251 298.886 550.271ZM266.95 570.03C266.849 570.07 266.758 570.122 266.685 570.207L262.377 575.161C262.298 575.252 262.244 575.361 262.222 575.479C262.199 575.596 262.208 575.717 262.247 575.83L265.14 584.086C265.18 584.201 265.277 584.287 265.398 584.307C265.457 584.319 265.519 584.315 265.576 584.295C265.633 584.275 265.683 584.24 265.722 584.194L268.28 581.264C268.441 581.075 268.501 580.822 268.421 580.592L267.075 576.735C266.995 576.504 267.043 576.251 267.205 576.066L268.291 574.812C268.37 574.721 268.471 574.653 268.585 574.614C268.696 574.575 268.819 574.563 268.938 574.586L270.569 574.892C270.687 574.914 270.798 574.966 270.888 575.044C270.979 575.122 271.048 575.222 271.087 575.335L272.432 579.192C272.512 579.422 272.719 579.584 272.96 579.631L276.786 580.334C276.845 580.346 276.907 580.342 276.964 580.322C277.021 580.302 277.071 580.268 277.11 580.221C277.149 580.176 277.176 580.121 277.187 580.063C277.199 580.004 277.194 579.943 277.175 579.887L274.304 571.624C274.265 571.511 274.197 571.41 274.106 571.333C274.015 571.255 273.905 571.202 273.786 571.181L267.332 569.981C267.222 569.96 267.119 569.976 267.014 570.008L266.95 570.03ZM315.331 553.235C315.219 553.275 315.119 553.341 315.038 553.434L310.73 558.389C310.651 558.479 310.598 558.589 310.575 558.706C310.552 558.823 310.561 558.944 310.6 559.057L312.747 565.212C312.828 565.443 313.033 565.607 313.276 565.651L319.665 566.802C319.901 566.844 320.145 566.769 320.305 566.59L322.918 563.677C323.001 563.585 323.033 563.455 322.993 563.339C322.974 563.283 322.94 563.232 322.895 563.193C322.849 563.154 322.794 563.128 322.735 563.118L316.247 561.929C316.126 561.907 316.014 561.816 315.974 561.701L315.303 559.777C315.263 559.662 315.298 559.532 315.379 559.439L316.726 557.891C316.765 557.845 316.816 557.811 316.872 557.791C316.929 557.771 316.99 557.767 317.049 557.778L319.067 558.153C319.126 558.164 319.181 558.19 319.226 558.229C319.272 558.268 319.306 558.318 319.326 558.374L319.855 559.891C319.874 559.948 319.909 559.998 319.954 560.037C319.999 560.076 320.054 560.102 320.114 560.113C320.235 560.135 320.357 560.093 320.437 560L323.013 557.016C323.092 556.925 323.145 556.816 323.168 556.698C323.191 556.581 323.182 556.46 323.143 556.347L322.625 554.862C322.545 554.633 322.348 554.465 322.107 554.419L315.685 553.208C315.567 553.186 315.445 553.195 315.331 553.235ZM300.844 563.443C300.873 563.434 300.908 563.429 300.938 563.434L303.151 563.849C303.211 563.86 303.266 563.9 303.286 563.958L304.024 566.073C304.044 566.131 304.027 566.196 303.986 566.242L302.511 567.944C302.492 567.966 302.466 567.983 302.438 567.993C302.409 568.003 302.379 568.005 302.35 568L300.137 567.586C300.076 567.574 300.022 567.534 300.002 567.477L299.264 565.361C299.244 565.304 299.262 565.238 299.302 565.192L300.777 563.491C300.794 563.469 300.818 563.453 300.845 563.443L300.844 563.443Z" fill="#404137"/>
<path d="M283.13 564.434C283.018 564.473 282.917 564.54 282.836 564.632L278.525 569.576C278.364 569.761 278.319 570.025 278.399 570.255L280.546 576.41C280.626 576.64 280.822 576.807 281.063 576.853L287.518 578.052C287.636 578.075 287.758 578.066 287.872 578.026C287.985 577.986 288.087 577.918 288.165 577.827L292.473 572.872C292.552 572.782 292.605 572.672 292.628 572.555C292.651 572.437 292.642 572.316 292.602 572.204L290.455 566.049C290.375 565.819 290.175 565.64 289.934 565.596L283.483 564.406C283.365 564.384 283.243 564.394 283.13 564.434ZM317.225 558.699C317.204 558.707 317.18 558.715 317.164 558.733L316.338 559.692C316.322 559.709 316.312 559.731 316.307 559.753C316.302 559.776 316.303 559.8 316.311 559.822L316.721 560.997C316.736 561.041 316.776 561.073 316.823 561.081L318.063 561.308C318.109 561.316 318.151 561.302 318.181 561.266L319.012 560.317C319.027 560.3 319.038 560.279 319.043 560.256C319.047 560.234 319.046 560.21 319.039 560.188L318.629 559.013C318.621 558.991 318.607 558.972 318.589 558.957C318.571 558.942 318.55 558.932 318.527 558.928L317.283 558.691C317.26 558.687 317.247 558.692 317.225 558.699Z" fill="#83CD29"/>
</g>
</g>
<rect x="247.124" y="542.882" width="70.6906" height="70.6906" rx="8.5" transform="rotate(-19.2322 247.124 542.882)" stroke="#F1F1F1" stroke-opacity="0.8" stroke-width="3"/>
<g clip-path="url(#clip3_54249_1205)">
<rect x="176.952" y="496.428" width="85.0286" height="85.0286" rx="10" transform="rotate(-27.5471 176.952 496.428)" fill="#0B0B0B"/>
<g clip-path="url(#clip4_54249_1205)">
<path d="M256.009 514.048C255.1 517.429 252.835 520.253 249.654 521.919C246.472 523.587 242.861 523.838 239.572 522.656C237.966 522.081 236.549 521.2 235.37 520.082C234.216 518.983 233.295 517.644 232.673 516.167C232.065 514.725 231.747 513.182 231.745 511.637C231.74 510.129 232.025 508.617 232.594 507.167C233.709 504.327 235.808 502.013 238.528 500.588C241.247 499.164 244.341 498.764 247.306 499.464C248.817 499.826 250.219 500.453 251.449 501.319C252.715 502.204 253.799 503.345 254.633 504.669C255.49 506.027 256.059 507.547 256.3 509.125C256.542 510.729 256.452 512.398 256.009 514.048Z" fill="white"/>
<path d="M236.947 514.122C236.079 512.225 236.08 510.152 236.758 508.33C237.422 506.539 238.755 504.965 240.598 504.003C242.445 503.043 244.496 502.852 246.344 503.33C248.227 503.818 249.927 505.002 250.988 506.798C252.077 508.646 252.281 510.786 251.706 512.749C251.12 514.747 249.732 516.535 247.69 517.6C245.649 518.665 243.386 518.781 241.412 518.119C239.475 517.465 237.84 516.072 236.947 514.122Z" fill="#005385"/>
<path d="M227.714 523.695C228.103 524.409 229.053 525.701 229.949 526.632C231.844 528.599 234.122 530.147 236.723 531.201C239.393 532.285 242.241 532.788 245.171 532.67C248.253 532.547 251.242 531.746 254.017 530.29C256.794 528.836 259.156 526.834 261.014 524.369C262.778 522.021 263.993 519.392 264.627 516.579C265.244 513.835 265.276 511.08 264.746 508.401C264.483 507.065 264.079 505.756 263.538 504.502C263.008 503.279 262.352 502.11 261.586 501.019C260.081 498.881 258.21 497.115 256.037 495.748C254.043 494.493 251.866 493.617 249.561 493.124L249.562 493.12L226.387 488.302C226.368 488.297 226.346 488.291 226.327 488.287C224.804 487.974 223.014 488.91 222.299 490.397C221.573 491.899 222.202 493.431 223.736 493.805L223.733 493.809L233.572 496.15L212.929 506.946L212.901 506.961C211.197 507.853 210.179 509.903 210.639 511.58C211.109 513.29 212.933 513.959 214.713 513.042L214.714 513.05L225.171 507.567L214.462 532.594C214.449 532.627 214.433 532.658 214.421 532.687C213.41 535.043 214.088 537.734 215.986 538.67C217.916 539.621 220.311 538.374 221.293 535.91L226.85 521.701C226.85 521.701 227.328 522.98 227.714 523.695ZM256.009 514.048C255.1 517.429 252.835 520.253 249.654 521.919C246.472 523.587 242.861 523.838 239.572 522.656C237.966 522.081 236.549 521.2 235.37 520.082C234.216 518.983 233.295 517.644 232.673 516.167C232.065 514.725 231.747 513.182 231.745 511.637C231.74 510.129 232.025 508.617 232.594 507.167C233.709 504.327 235.808 502.013 238.528 500.588C241.247 499.164 244.341 498.764 247.306 499.464C248.817 499.826 250.219 500.453 251.449 501.319C252.715 502.204 253.799 503.345 254.633 504.669C255.49 506.027 256.059 507.547 256.3 509.125C256.542 510.729 256.452 512.398 256.009 514.048Z" fill="#FF7021"/>
</g>
</g>
<rect x="178.975" y="497.064" width="82.0286" height="82.0286" rx="8.5" transform="rotate(-27.5471 178.975 497.064)" stroke="white" stroke-width="3"/>
<rect x="178.006" y="556.542" width="64.3599" height="64.3599" rx="8.5" transform="rotate(-24.8664 178.006 556.542)" fill="#333333"/>
<rect x="178.006" y="556.542" width="64.3599" height="64.3599" rx="8.5" transform="rotate(-24.8664 178.006 556.542)" stroke="white" stroke-width="3"/>
<g clip-path="url(#clip5_54249_1205)">
<path d="M223.723 594.785C227.331 593.113 228.901 588.829 227.229 585.221L224.2 578.686L217.665 581.715C214.058 583.387 212.487 587.671 214.159 591.279C215.831 594.886 220.116 596.457 223.723 594.785Z" fill="#0ACF83"/>
<path d="M208.101 578.208C206.429 574.601 208 570.316 211.607 568.644L218.143 565.615L224.2 578.686L217.665 581.715C214.058 583.387 209.773 581.816 208.101 578.208Z" fill="#A259FF"/>
<path d="M202.043 565.138C200.371 561.53 201.942 557.245 205.549 555.573L212.085 552.544L218.143 565.615L211.607 568.644C208 570.316 203.715 568.745 202.043 565.138Z" fill="#F24E1E"/>
<path d="M212.085 552.544L218.62 549.515C222.228 547.843 226.512 549.414 228.184 553.022C229.856 556.629 228.285 560.914 224.678 562.586L218.143 565.615L212.085 552.544Z" fill="#FF7262"/>
<path d="M234.242 566.092C235.914 569.7 234.343 573.985 230.736 575.657C227.128 577.329 222.844 575.758 221.172 572.15C219.5 568.543 221.07 564.258 224.678 562.586C228.285 560.914 232.57 562.485 234.242 566.092Z" fill="#1ABCFE"/>
</g>
<g clip-path="url(#clip6_54249_1205)">
<rect x="59.9321" y="516.486" width="55.9654" height="55.9654" rx="10" transform="rotate(46.9806 59.9321 516.486)" fill="#0B0B0B"/>
<path d="M48.1976 572.131C46.0922 568.221 44.3698 564.976 44.3705 564.92C44.3708 564.863 44.6581 563.888 45.0085 562.753L45.6456 560.69L44.0329 558.915L42.4202 557.139L42.6009 549.216C42.7004 544.859 42.8305 541.248 42.8904 541.192C42.9492 541.137 46.5967 541.257 50.9941 541.459L58.9894 541.828L60.6117 543.519L62.2341 545.211L64.3361 544.718C65.4923 544.447 66.4842 544.228 66.5406 544.231C66.6666 544.239 80.4542 552.997 80.4529 553.069C80.4429 553.106 78.5501 556.163 76.2254 559.881L71.9989 566.64L69.7662 567.115L67.5335 567.59L66.9058 569.784L66.2778 571.979L59.3797 575.583C51.4488 579.725 52.1338 579.377 52.078 579.295C52.0494 579.264 50.3116 576.033 48.2061 572.123L48.1976 572.131ZM52.5321 570.987C52.5718 570.831 53.4286 567.956 54.4368 564.598C55.4451 561.24 56.2722 558.47 56.2746 558.443C56.2886 558.278 47.145 548.234 47.0578 548.315C47.0225 548.348 46.9664 549.211 46.9321 550.233C46.8619 552.336 46.6015 558.401 46.5302 559.604L46.483 560.399L47.8097 562.832C49.5388 566.003 51.4107 569.461 51.8523 570.301C52.0449 570.668 52.2606 571.036 52.3327 571.118C52.4542 571.248 52.4548 571.253 52.5321 570.987ZM61.6421 569.643L66.9232 566.952L69.9721 561.87C71.649 559.075 73.0239 556.736 73.0274 556.674C73.0308 556.611 70.0952 557.222 66.5033 558.032L59.9728 559.504L58.0531 565.917C56.9975 569.445 56.1849 572.331 56.2474 572.332C56.3099 572.333 58.7376 571.123 61.6421 569.643ZM59.1247 555.66C59.3476 555.672 72.1727 552.865 72.1739 552.804C72.1627 552.792 71.1947 552.132 69.9953 551.367C67.8708 550.01 62.8171 546.771 62.1308 546.326C61.8872 546.168 61.4202 546.092 60.5219 546.067C59.8255 546.047 57.1006 545.961 54.4666 545.875C51.8326 545.788 49.658 545.736 49.6342 545.758C49.6107 545.78 51.6963 548.015 54.2691 550.725C57.5993 554.232 58.9965 555.655 59.1247 555.66Z" fill="white"/>
</g>
<rect x="59.8588" y="518.607" width="52.9654" height="52.9654" rx="8.5" transform="rotate(46.9806 59.8588 518.607)" stroke="white" stroke-width="3"/>
<rect x="62.0538" y="507.462" width="55.462" height="55.462" rx="8.5" transform="rotate(-29.0557 62.0538 507.462)" fill="#F7DF1E"/>
<rect x="62.0538" y="507.462" width="55.462" height="55.462" rx="8.5" transform="rotate(-29.0557 62.0538 507.462)" stroke="white" stroke-width="3"/>
<path d="M118.479 528.007C120.347 529.062 122.275 529.53 124.529 528.277C126.423 527.225 127.106 525.607 126.38 524.299C125.51 522.733 123.959 522.868 121.368 523.114L119.953 523.259C115.875 523.686 112.707 523.143 110.64 519.422C108.736 515.995 109.897 511.936 113.979 509.668C116.884 508.054 119.535 507.904 122.511 509.716L120.222 513.978C118.658 513.008 117.505 512.924 116.193 513.653C114.854 514.397 114.478 515.717 115.094 516.827C115.855 518.197 117.013 518.281 119.445 518.041L120.86 517.895C125.668 517.403 128.803 517.883 130.923 521.699C133.209 525.813 131.23 529.863 126.889 532.275C122.645 534.633 118.779 534.134 115.965 532.228C115.964 532.227 118.479 528.007 118.479 528.007ZM102.557 537.372C103.982 538.246 105.234 538.96 106.804 538.088C108.305 537.254 108.926 536.141 107.657 533.856L99.0235 518.318L103.593 515.779L112.26 531.379C114.889 536.111 113.311 539.806 109.262 542.056C105.603 544.088 102.432 543.372 100.087 541.69L102.557 537.372Z" fill="black"/>
<g clip-path="url(#clip7_54249_1205)">
<rect x="54.4828" y="457.486" width="51.1374" height="51.1374" rx="10" transform="rotate(39.4164 54.4828 457.486)" fill="#F16529"/>
<path d="M55.3457 486.606L60.6948 491.002L63.916 487.083L54.4345 479.29L53.6608 480.416L45.7134 491.98L54.1751 498.935L57.3962 495.016L52.3927 490.903L55.3457 486.606Z" fill="#EBEBEB" fill-opacity="0.8"/>
<path d="M48.0527 497.213L44.2552 494.092L39.7795 500.618L45.7155 509.192L45.737 509.202L49.0539 505.166L49.0336 505.157L45.7793 500.528L48.0527 497.213Z" fill="#EBEBEB" fill-opacity="0.8"/>
<path d="M57.8383 469.511L59.7358 471.071L58.1275 473.028L59.8633 474.454L61.4716 472.497L63.3692 474.057L58.4987 479.983L56.6012 478.423L58.2321 476.439L56.4964 475.012L54.8654 476.997L52.9679 475.437L57.8383 469.511Z" fill="black" fill-opacity="0.88"/>
<path d="M64.1817 478.017L62.5442 476.672L64.1594 474.706L69.2952 478.927L67.6801 480.893L66.0419 479.546L62.7865 483.507L60.9264 481.978L64.1817 478.017Z" fill="black" fill-opacity="0.88"/>
<path d="M70.0853 479.577L72.0422 481.185L71.5347 484.257L74.4486 483.163L76.4063 484.772L71.5358 490.698L69.6668 489.162L72.0808 486.225L69.0579 487.27L69.0256 487.244L69.4652 484.075L67.0511 487.012L65.2148 485.503L70.0853 479.577Z" fill="black" fill-opacity="0.88"/>
<path d="M77.5915 485.746L79.3978 487.231L76.1372 491.198L78.6766 493.285L77.0667 495.244L72.721 491.672L77.5915 485.746Z" fill="black" fill-opacity="0.88"/>
<path d="M54.2093 498.893L59.0228 502.849L54.4024 507.546L49.0754 505.14L45.7329 509.207L55.572 513.572L56.1736 512.96L65.5504 503.424L66.5085 502.452L57.4221 494.984L54.2093 498.893Z" fill="white"/>
<path d="M60.677 491.024L60.669 491.034L70.1926 498.861L71.0015 498.038L72.8272 496.183L73.7926 495.201L63.916 487.083L60.677 491.024Z" fill="white"/>
</g>
<rect x="54.6892" y="459.598" width="48.1374" height="48.1374" rx="8.5" transform="rotate(39.4164 54.6892 459.598)" stroke="white" stroke-width="3"/>
<path d="M765.014 62.4863C771.995 48.7363 789.764 40.4863 798.014 40.4863" stroke="#E89773" stroke-width="5"/>
<path d="M206.415 374.007C196.08 389.977 172.717 398.401 162.291 397.698" stroke="#E89773" stroke-width="5"/>
<path d="M775.598 69.6305C785.141 61.4887 805.448 59.6744 814.306 61.5398" stroke="#E89773" stroke-width="5"/>
<path d="M193.821 364.497C180.866 373.493 155.003 373.947 144.014 370.944" stroke="#E89773" stroke-width="5"/>
</g>
<defs>
<clipPath id="clip0_54249_1205">
<rect width="961" height="837" fill="white" transform="translate(0.908569)"/>
</clipPath>
<clipPath id="clip1_54249_1205">
<rect x="245.213" y="541.96" width="73.6906" height="73.6906" rx="10" transform="rotate(-19.2322 245.213 541.96)" fill="white"/>
</clipPath>
<clipPath id="clip2_54249_1205">
<rect width="64.0332" height="22.8064" fill="white" transform="translate(258.125 564.428) rotate(-19.2322)"/>
</clipPath>
<clipPath id="clip3_54249_1205">
<rect x="176.952" y="496.428" width="85.0286" height="85.0286" rx="10" transform="rotate(-27.5471 176.952 496.428)" fill="white"/>
</clipPath>
<clipPath id="clip4_54249_1205">
<rect width="59.7959" height="51.0367" fill="white" transform="translate(195.76 503.124) rotate(-27.5471)"/>
</clipPath>
<clipPath id="clip5_54249_1205">
<rect width="28.8125" height="43.2188" fill="white" transform="translate(199.014 558.602) rotate(-24.8664)"/>
</clipPath>
<clipPath id="clip6_54249_1205">
<rect x="59.9321" y="516.486" width="55.9654" height="55.9654" rx="10" transform="rotate(46.9806 59.9321 516.486)" fill="white"/>
</clipPath>
<clipPath id="clip7_54249_1205">
<rect x="54.4828" y="457.486" width="51.1374" height="51.1374" rx="10" transform="rotate(39.4164 54.4828 457.486)" fill="white"/>
</clipPath>
</defs>
</svg>
