<svg width="605" height="574" viewBox="0 0 605 574" fill="none" xmlns="http://www.w3.org/2000/svg">
<g clip-path="url(#clip0_54264_749)">
<path d="M476.209 372.09C449.549 372.09 426.599 435.82 441.643 455.945C444.351 459.136 447.947 462.633 452.249 465.932C439.971 439.358 443.286 403.944 476.209 372.09Z" fill="white"/>
<path d="M414.817 305.377C328.531 353.465 172.371 308.917 102.56 270.396L97.841 278.616C190.875 333.379 357.567 363.5 420.633 311.39C422.091 310.438 416.153 307.19 414.817 305.377Z" fill="white"/>
<path d="M119.536 136.604C119.536 154.175 108.067 161.983 88.0671 161.983C74.5671 161.983 129.088 176.029 119.536 185.185C111.895 192.51 98.1149 195.14 94.0671 197.429C101.299 194.377 119.536 196.859 119.536 216.087C119.536 235.315 106.148 258.569 102.56 270.396C172.371 308.917 328.531 353.465 414.817 305.377C417.592 303.831 429.134 261.051 429.134 241.466C429.134 230.914 454.636 226.587 448.564 226.587C443.706 226.587 438.444 215.905 436.42 210.564C450.979 210.564 465.191 197.429 461.13 197.429C438.797 197.429 430.753 172.965 429.134 161.983V47.55C425.278 47.55 381.023 89.9746 375.887 88.05C341.067 75 222.747 55.45 183.567 61.5L140.067 7L119.536 136.604Z" fill="#E45519"/>
<path d="M526.949 462.801C562.467 429.725 558.498 358.496 552.684 334.586C570.242 334.586 577.896 325.892 580.782 323.357C584.082 320.458 586.737 316.266 588.625 311.39C585.592 315.083 569.2 324.098 554.122 313.682C562.728 308.219 564.235 297.904 557.055 289.337C572.121 289.05 584.304 278.616 584.304 278.616C611.565 254.312 594.014 243.151 591.672 241.466C577.673 231.397 533.097 235.709 501.415 259.52C486.311 270.977 473.925 279.111 476.141 369.523C476.285 370.502 476.311 371.363 476.209 372.09C443.286 403.944 439.971 439.358 452.249 465.932C469.612 479.244 498.484 489.309 526.949 462.801Z" fill="#E45519"/>
<path d="M588.625 311.39C592.406 301.624 594.25 287.643 584.304 278.616C584.304 278.616 572.121 289.05 557.055 289.337C564.235 297.904 562.728 308.219 554.122 313.682C569.2 324.098 585.592 315.083 588.625 311.39Z" fill="#E45519"/>
<path fill-rule="evenodd" clip-rule="evenodd" d="M420.633 311.39C357.567 363.5 190.875 333.379 97.841 278.616C78.7497 294.411 39.9671 331.2 37.5671 352C36.9769 357.116 35.6285 371.105 33.8239 390.5C31.0558 420.251 27.2145 462.724 23.3899 505.404C47.2485 503.8 89.4412 516.216 113.489 525C113.54 529.459 113.589 533.977 113.634 538.5C114.052 580.82 114.118 623.692 112.567 624.969C212.92 630.132 476.985 634.541 471.15 621.435C468.703 615.936 466.487 590.261 463.943 560.775C460.86 525.053 457.294 483.737 452.249 465.932C447.947 462.633 444.351 459.136 441.643 455.945C426.599 435.82 449.549 372.09 476.209 372.09C476.185 371.232 476.162 370.377 476.141 369.523C473.665 352.718 441.245 322.941 420.633 311.39Z" fill="#2B4F8D"/>
<path d="M74.5671 621.435C74.5671 622.511 89.0855 623.761 112.567 624.969C114.118 623.692 114.052 580.82 113.634 538.5C68.8352 514.338 38.9707 516.699 22.0795 520.043C18.7135 557.682 15.4581 594.363 13.0671 621.435H74.5671Z" fill="#E45519"/>
<path fill-rule="evenodd" clip-rule="evenodd" d="M15.1567 521.572L15.161 521.571L15.1567 521.572Z" fill="#2B4F8D"/>
<path d="M113.489 525C89.4412 516.216 47.2485 503.8 23.3899 505.404C14.2035 506.021 7.73513 508.718 6.06715 514.5C3.21816 524.376 6.01603 523.719 15.155 521.573L15.1567 521.572L15.161 521.571C15.4098 521.513 15.6632 521.453 15.9214 521.393C17.739 520.967 19.7901 520.496 22.0795 520.043C38.9707 516.699 68.8352 514.338 113.634 538.5C113.589 533.977 113.54 529.459 113.489 525Z" fill="white"/>
<path d="M476.209 372.09C449.549 372.09 426.599 435.82 441.643 455.945C444.351 459.136 447.947 462.633 452.249 465.932M476.209 372.09C443.286 403.944 439.971 439.358 452.249 465.932M476.209 372.09C476.311 371.363 476.285 370.502 476.141 369.523M476.209 372.09C476.185 371.232 476.162 370.377 476.141 369.523M452.249 465.932C469.612 479.244 498.484 489.309 526.949 462.801C562.467 429.725 558.498 358.496 552.684 334.586M452.249 465.932C457.294 483.737 460.86 525.053 463.943 560.775C466.487 590.261 468.703 615.936 471.15 621.435M414.817 305.377C328.531 353.465 172.371 308.917 102.56 270.396M414.817 305.377C416.153 307.19 422.091 310.438 420.633 311.39M414.817 305.377C417.592 303.831 429.134 261.051 429.134 241.466C429.134 230.914 454.636 226.587 448.564 226.587C443.706 226.587 438.444 215.905 436.42 210.564C450.979 210.564 465.191 197.429 461.13 197.429C438.797 197.429 430.753 172.965 429.134 161.983V47.55C425.278 47.55 381.023 89.9746 375.887 88.05C341.067 75 222.747 55.45 183.567 61.5L140.067 7L119.536 136.604C119.536 154.175 108.067 161.983 88.0671 161.983C74.5671 161.983 129.088 176.029 119.536 185.185C111.895 192.51 98.1149 195.14 94.0671 197.429C101.299 194.377 119.536 196.859 119.536 216.087C119.536 235.315 106.148 258.569 102.56 270.396M102.56 270.396L97.841 278.616M97.841 278.616C190.875 333.379 357.567 363.5 420.633 311.39M97.841 278.616C78.7497 294.411 39.9671 331.2 37.5671 352M420.633 311.39C441.245 322.941 473.665 352.718 476.141 369.523M552.684 334.586C570.242 334.586 577.896 325.892 580.782 323.357C584.082 320.458 586.737 316.266 588.625 311.39M552.684 334.586C547.542 334.586 540.213 335.5 533.128 332.054M588.625 311.39C585.592 315.083 569.2 324.098 554.122 313.682C562.728 308.219 564.235 297.904 557.055 289.337M588.625 311.39C592.406 301.624 594.25 287.643 584.304 278.616M557.055 289.337C572.121 289.05 584.304 278.616 584.304 278.616M557.055 289.337C552.208 283.554 543.402 278.568 530.15 276.408M557.055 289.337C570.128 304.935 554.404 326.327 519.467 313.682M557.055 289.337C556.844 289.341 556.633 289.343 556.421 289.343M584.304 278.616C611.565 254.312 594.014 243.151 591.672 241.466C577.673 231.397 533.097 235.709 501.415 259.52C486.311 270.977 473.925 279.111 476.141 369.523M37.5671 352C36.9769 357.116 35.6285 371.105 33.8239 390.5C31.0558 420.251 27.2145 462.724 23.3899 505.404M37.5671 352C59.2314 360.5 112.567 399.545 112.567 455.945C112.567 460.599 113.1 491.133 113.489 525M23.3899 505.404C47.2485 503.8 89.4412 516.216 113.489 525M23.3899 505.404C14.2035 506.021 7.73513 508.718 6.06715 514.5C3.21816 524.376 6.01603 523.719 15.155 521.573L15.1567 521.572M113.489 525C113.54 529.459 113.589 533.977 113.634 538.5M113.634 538.5C114.052 580.82 114.118 623.692 112.567 624.969M113.634 538.5C68.8352 514.338 38.9707 516.699 22.0795 520.043M112.567 624.969C212.92 630.132 476.985 634.541 471.15 621.435M112.567 624.969C89.0855 623.761 74.5671 622.511 74.5671 621.435M471.15 621.435C478.35 637.608 74.5671 627.11 74.5671 621.435M74.5671 621.435H13.0671C15.4581 594.363 18.7135 557.682 22.0795 520.043M22.0795 520.043C19.7901 520.496 17.739 520.967 15.9214 521.393C15.6632 521.453 15.4098 521.513 15.161 521.571M15.1567 521.572L15.161 521.571M15.1567 521.572L15.161 521.571" stroke="black" stroke-width="5"/>
<ellipse cx="232.815" cy="158.831" rx="4.42189" ry="4.51013" transform="rotate(4.33173 232.815 158.831)" fill="black"/>
<ellipse cx="325.901" cy="173.905" rx="4.42189" ry="4.51013" transform="rotate(4.33173 325.901 173.905)" fill="black"/>
<path d="M284.621 193.775C284.433 196.259 280.79 195.913 278.38 196.843C276.61 195.445 272.747 195.374 272.935 192.89C273.243 192.104 273.932 191.52 278.755 191.886C284.286 192.305 283.176 192.553 284.621 193.775Z" fill="black"/>
<path d="M281.328 196.097C281.282 198.739 282.479 200.803 284.642 202.484C286.885 204.228 290.073 205.457 293.501 206.12C296.914 206.78 300.281 206.824 302.707 206.428C303.907 206.233 304.698 205.957 305.127 205.723C305.299 204.608 305.829 202.991 307.588 202.271C308.504 201.895 309.363 201.962 309.903 202.059C310.449 202.158 310.946 202.34 311.299 202.481C311.652 202.622 312.051 202.803 312.336 202.927C312.657 203.067 312.934 203.182 313.199 203.275C313.745 203.468 314.06 203.501 314.246 203.483L314.536 206.468L314.826 209.455C313.396 209.594 312.128 209.261 311.198 208.932C310.944 208.843 310.701 208.747 310.476 208.654C309.882 209.728 308.933 210.465 308.118 210.926C306.841 211.649 305.267 212.09 303.673 212.35C300.699 212.835 296.996 212.792 293.306 212.178C291.427 216.799 289.076 220.283 286.368 222.618C283.082 225.451 279.283 226.562 275.552 225.829C268.984 224.54 264.143 218.026 262.492 209.609C258.561 209.598 254.804 208.534 251.867 207.096C250.026 206.195 248.376 205.085 247.153 203.858C246.402 203.104 245.543 202.035 245.134 200.738C244.457 200.904 243.415 201.167 242.677 201.308C241.623 201.51 240.14 201.709 238.687 201.341L240.159 195.526C240.279 195.556 240.676 195.582 241.549 195.415C242.537 195.226 243.083 195.04 244.294 194.771C244.783 194.663 245.35 194.553 245.922 194.507C246.467 194.462 247.231 194.453 248.025 194.7C248.91 194.976 249.811 195.572 250.376 196.607C250.828 197.435 250.927 198.298 250.905 199.019C250.962 199.116 251.099 199.317 251.403 199.622C252.04 200.262 253.093 201.017 254.504 201.708C257.335 203.094 261.078 203.966 264.628 203.469C270.742 202.612 274.766 199.992 275.352 195.644L278.326 196.045L281.328 196.097ZM277.738 203.891C275.272 206.44 271.868 207.984 268.45 208.832C269.868 215.661 273.564 219.325 276.708 219.942C278.392 220.272 280.365 219.872 282.451 218.073C284.139 216.619 285.886 214.241 287.435 210.669C285.105 209.833 282.869 208.705 280.96 207.222C279.734 206.269 278.634 205.159 277.738 203.891Z" fill="black"/>
<path d="M277.567 201L266.067 208L272.567 222H281.067L290.567 209.5L277.567 201Z" fill="black" stroke="black" stroke-width="2"/>
</g>
<defs>
<clipPath id="clip0_54264_749">
<rect width="605" height="574" fill="white"/>
</clipPath>
</defs>
</svg>
