<svg width="968" height="815" viewBox="0 0 968 815" fill="none" xmlns="http://www.w3.org/2000/svg">
<path d="M725.712 367.963C639.723 427.508 399.176 446.827 272.906 367.963C264.511 377.869 208.951 443.57 208.951 453.53L367.22 460.814L351.977 661.153H447.682V669.076L351.374 677.786L262.558 674.224C260.516 684.589 262.558 839.672 262.558 846.21C262.558 854.383 810.59 869.501 800.819 846.21C793.471 828.697 787.665 669.076 775.164 622.269C769.326 617.519 764.445 612.482 760.77 607.887C740.351 578.905 771.5 487.126 807.685 487.126C807.651 485.892 807.62 484.66 807.592 483.43C804.231 459.229 753.687 384.598 725.712 367.963Z" fill="#2B4F8D"/>
<path d="M807.685 487.126C771.5 487.126 740.351 578.905 760.77 607.887C764.445 612.482 769.326 617.519 775.164 622.269C758.5 584 763 533 807.685 487.126Z" fill="white"/>
<path d="M717.819 359.304C600.707 428.556 374.062 414.779 279.31 359.304L272.906 367.963C399.176 446.827 639.723 427.508 725.712 367.963C727.69 366.592 719.631 361.914 717.819 359.304Z" fill="white"/>
<path d="M367.22 460.814L208.951 453.53L3.89453 448.364L11.8178 654.362H41.2447C40.5662 631.433 59.465 618.496 84 613.723C103.11 610.005 125.639 611.24 145 616.565C172.343 624.083 193.367 639.757 189.519 661.153L351.374 669.076L351.977 661.153L367.22 460.814Z" fill="#828282"/>
<path d="M351.374 669.076L447.682 661.153H351.977L351.374 669.076Z" fill="#737373"/>
<path d="M351.374 669.076L189.519 661.153C188.445 664.235 186.537 666.864 183.98 669.076L262.558 674.224L351.374 677.786V669.076Z" fill="#535353"/>
<path d="M41.2447 654.362H11.8178V661.153H42.9737L42.9589 661.123L42.9285 661.062L42.9056 661.015C41.8879 658.924 41.3141 656.706 41.2447 654.362Z" fill="#535353"/>
<path d="M351.374 669.076V677.786L447.682 669.076V661.153L351.374 669.076Z" fill="#535353"/>
<path d="M279.31 359.304C284.181 342.272 292.004 320.47 292.004 292.78C292.004 265.09 272.373 266.958 262.558 271.353C268.052 268.056 281.632 258.826 292.004 248.278C304.968 235.092 228.744 225.762 247.722 225.762C266.7 225.762 292.004 203.621 292.004 178.316C292.004 158.073 292.004 56.013 292.004 7.51367L359.804 68.62C410.899 62.0271 547.165 56.6366 611.048 68.62C618.377 69.995 682.57 7.51367 687.802 7.51367L699.34 178.316C701.538 194.131 712.456 229.362 742.767 229.362C748.278 229.362 728.989 248.278 709.229 248.278C711.976 255.969 719.119 271.353 725.712 271.353C733.953 271.353 699.34 277.584 699.34 292.78C699.34 320.984 721.584 357.077 717.819 359.304M279.31 359.304C374.062 414.779 600.707 428.556 717.819 359.304M279.31 359.304L272.906 367.963M717.819 359.304C719.631 361.914 727.691 366.592 725.712 367.963M272.906 367.963C399.176 446.827 639.723 427.508 725.712 367.963M272.906 367.963C264.511 377.869 208.951 443.57 208.951 453.53M725.712 367.963C753.687 384.598 804.231 459.229 807.592 483.43M208.951 453.53L367.22 460.814L351.977 661.153M208.951 453.53L3.89453 448.364L11.8178 654.362M351.374 669.076L189.519 661.153M351.374 669.076V677.786M351.374 669.076L447.682 661.153M351.374 669.076L351.977 661.153M189.519 661.153C188.445 664.235 186.537 666.864 183.98 669.076M189.519 661.153C193.367 639.757 172.343 624.083 145 616.565M41.2447 654.362H11.8178M41.2447 654.362C40.5662 631.433 59.465 618.496 84 613.723M41.2447 654.362C41.3141 656.706 41.8879 658.924 42.9056 661.015M11.8178 654.362V661.153H42.9737M42.9737 661.153C42.9687 661.143 42.9638 661.133 42.9589 661.123M42.9737 661.153L42.9589 661.123M183.98 669.076L262.558 674.224M183.98 669.076C173.35 695.201 58.4388 692.389 42.9589 661.123M351.374 677.786L447.682 669.076V661.153M351.374 677.786L262.558 674.224M447.682 661.153H351.977M807.685 487.126C771.5 487.126 740.351 578.905 760.77 607.887C764.445 612.482 769.325 617.519 775.164 622.269M807.685 487.126C807.651 485.892 807.62 484.66 807.592 483.43M807.685 487.126C807.823 486.08 807.788 484.841 807.592 483.43M807.685 487.126C763 533 758.5 584 775.164 622.269M911.48 433.117C919.371 467.55 924.757 570.128 876.551 617.761C837.917 655.935 798.731 641.441 775.164 622.269M911.48 433.117C935.31 433.117 945.698 420.596 949.615 416.946C954.094 412.771 957.698 406.734 960.26 399.712M911.48 433.117C904.5 433.117 894.553 434.433 884.938 429.47M961.766 352.692C956.124 334.28 940.869 319.416 911.48 319.416C897.564 319.416 890.012 323.169 887.951 319.416C882.887 310.194 889.778 269.798 868.51 263.721C830.393 252.831 804.584 353.227 807.592 483.43M961.766 352.692C956.864 359.06 941.608 371.028 919.8 367.963M961.766 352.692C966.343 367.63 965.392 385.648 960.26 399.712M960.26 399.712C956.144 405.03 942.715 414.901 921.93 411.834M262.558 674.224C260.516 684.589 262.558 839.672 262.558 846.21C262.558 854.383 810.59 869.501 800.819 846.21C793.471 828.697 787.665 669.076 775.164 622.269M84 613.723C79 620.5 75.5 639 81 646M84 613.723C103.11 610.005 125.639 611.24 145 616.565M145 616.565C143 621.376 133.5 637.5 141 650M42.9056 661.015L42.9285 661.062M42.9056 661.015C42.9132 661.03 42.9208 661.046 42.9285 661.062M42.9589 661.123L42.9285 661.062M42.9589 661.123C42.9488 661.103 42.9386 661.082 42.9285 661.062" stroke="black" stroke-width="6"/>
<ellipse cx="430.038" cy="189.043" rx="6.00159" ry="6.49507" fill="black"/>
<ellipse cx="558.927" cy="189.043" rx="6.00159" ry="6.49507" fill="black"/>
<path d="M504.41 221.208C504.41 224.795 499.443 224.695 496.277 226.292C493.739 224.477 488.503 224.795 488.503 221.208C488.84 220.046 489.712 219.133 496.277 219.133C503.806 219.133 502.329 219.61 504.41 221.208Z" fill="black"/>
<path d="M446.729 237.042C451.067 237.844 455.5 232.632 455.5 237.844C455.5 245.944 495.607 247.757 496.8 226.012" stroke="black" stroke-width="6"/>
<path d="M546.869 237.042C542.531 237.844 538.098 232.632 538.098 237.844C538.098 245.944 497.991 247.757 496.798 226.012" stroke="black" stroke-width="6"/>
<g clip-path="url(#clip0_94_1444)">
<rect x="248.199" y="563.474" width="73.6906" height="73.6906" rx="10" transform="rotate(-19.2322 248.199 563.474)" fill="#F1F1F1"/>
<g clip-path="url(#clip1_94_1444)">
<path d="M301.872 571.785C301.816 571.805 301.765 571.839 301.725 571.884C301.686 571.929 301.66 571.984 301.648 572.043C301.637 572.101 301.641 572.162 301.661 572.218L304.512 580.392C304.54 580.472 304.528 580.557 304.472 580.622C304.444 580.654 304.409 580.678 304.369 580.692C304.329 580.706 304.286 580.709 304.245 580.701L302.629 580.402C302.511 580.38 302.389 580.389 302.275 580.429C302.162 580.469 302.06 580.537 301.982 580.628L297.674 585.582C297.513 585.768 297.468 586.032 297.548 586.262L299.695 592.416C299.775 592.646 299.971 592.814 300.212 592.859L306.667 594.059C306.785 594.081 306.907 594.072 307.021 594.033C307.135 593.993 307.236 593.924 307.314 593.833L311.622 588.879C311.701 588.788 311.754 588.679 311.777 588.561C311.8 588.444 311.791 588.323 311.752 588.21L306.399 572.866C306.358 572.751 306.288 572.649 306.195 572.57C306.101 572.491 305.988 572.438 305.867 572.417L302.045 571.76C301.985 571.75 301.928 571.765 301.872 571.785ZM269.936 591.544C269.835 591.584 269.744 591.635 269.671 591.72L265.363 596.675C265.284 596.766 265.23 596.875 265.208 596.992C265.185 597.11 265.194 597.231 265.233 597.343L268.126 605.599C268.166 605.714 268.263 605.8 268.384 605.821C268.443 605.833 268.505 605.829 268.562 605.809C268.619 605.789 268.669 605.754 268.708 605.708L271.266 602.778C271.427 602.588 271.487 602.335 271.407 602.106L270.061 598.248C269.981 598.018 270.029 597.764 270.191 597.58L271.277 596.326C271.356 596.235 271.457 596.166 271.571 596.127C271.682 596.089 271.805 596.076 271.924 596.1L273.555 596.406C273.673 596.427 273.784 596.48 273.874 596.558C273.965 596.635 274.034 596.736 274.073 596.849L275.418 600.706C275.498 600.935 275.705 601.097 275.946 601.145L279.772 601.848C279.831 601.86 279.893 601.856 279.95 601.836C280.007 601.816 280.057 601.781 280.096 601.735C280.135 601.69 280.162 601.635 280.173 601.576C280.185 601.518 280.18 601.457 280.161 601.401L277.29 593.137C277.251 593.024 277.183 592.924 277.092 592.846C277.001 592.768 276.891 592.716 276.772 592.695L270.318 591.495C270.208 591.473 270.105 591.49 270 591.521L269.936 591.544ZM318.317 574.749C318.205 574.788 318.105 574.855 318.024 574.947L313.716 579.902C313.637 579.993 313.584 580.102 313.561 580.22C313.538 580.337 313.547 580.458 313.586 580.571L315.733 586.725C315.814 586.957 316.019 587.12 316.262 587.164L322.651 588.315C322.887 588.358 323.131 588.282 323.291 588.104L325.904 585.191C325.987 585.098 326.019 584.969 325.979 584.853C325.96 584.796 325.926 584.746 325.881 584.707C325.835 584.668 325.78 584.642 325.721 584.631L319.233 583.443C319.112 583.421 319 583.329 318.96 583.214L318.289 581.291C318.249 581.176 318.284 581.045 318.365 580.953L319.712 579.404C319.751 579.359 319.802 579.325 319.858 579.305C319.915 579.285 319.976 579.28 320.035 579.291L322.053 579.666C322.112 579.677 322.167 579.703 322.212 579.742C322.258 579.781 322.292 579.831 322.312 579.888L322.841 581.405C322.86 581.461 322.895 581.511 322.94 581.55C322.985 581.589 323.041 581.615 323.1 581.626C323.221 581.649 323.343 581.606 323.423 581.513L325.999 578.529C326.078 578.439 326.131 578.329 326.154 578.212C326.177 578.095 326.168 577.973 326.129 577.861L325.611 576.376C325.531 576.146 325.334 575.978 325.093 575.933L318.671 574.722C318.553 574.7 318.431 574.709 318.317 574.749ZM303.83 584.957C303.859 584.947 303.894 584.942 303.924 584.948L306.137 585.362C306.197 585.374 306.252 585.414 306.272 585.471L307.01 587.587C307.03 587.644 307.013 587.71 306.972 587.756L305.497 589.457C305.478 589.48 305.452 589.497 305.424 589.507C305.395 589.517 305.365 589.519 305.336 589.514L303.123 589.099C303.062 589.088 303.008 589.048 302.988 588.99L302.25 586.875C302.23 586.817 302.248 586.752 302.288 586.706L303.763 585.005C303.78 584.983 303.804 584.966 303.831 584.957L303.83 584.957Z" fill="#404137"/>
<path d="M286.116 585.947C286.004 585.986 285.903 586.053 285.822 586.146L281.511 591.09C281.35 591.275 281.305 591.539 281.385 591.769L283.532 597.923C283.612 598.154 283.808 598.321 284.049 598.366L290.504 599.566C290.622 599.588 290.744 599.579 290.858 599.54C290.971 599.5 291.073 599.431 291.151 599.34L295.459 594.386C295.538 594.295 295.591 594.186 295.614 594.068C295.637 593.951 295.628 593.83 295.588 593.717L293.441 587.563C293.361 587.332 293.161 587.154 292.92 587.109L286.469 585.92C286.351 585.898 286.229 585.907 286.116 585.947ZM320.211 580.213C320.19 580.221 320.166 580.229 320.151 580.246L319.324 581.206C319.308 581.223 319.298 581.244 319.293 581.267C319.288 581.29 319.289 581.313 319.297 581.335L319.707 582.511C319.722 582.555 319.762 582.586 319.809 582.595L321.049 582.821C321.095 582.83 321.137 582.816 321.167 582.78L321.998 581.831C322.013 581.814 322.024 581.793 322.029 581.77C322.033 581.747 322.032 581.724 322.025 581.702L321.615 580.526C321.607 580.505 321.593 580.485 321.575 580.471C321.557 580.456 321.536 580.446 321.513 580.442L320.269 580.205C320.246 580.2 320.233 580.206 320.211 580.213Z" fill="#83CD29"/>
</g>
</g>
<rect x="250.11" y="564.396" width="70.6906" height="70.6906" rx="8.5" transform="rotate(-19.2322 250.11 564.396)" stroke="#F1F1F1" stroke-opacity="0.8" stroke-width="3"/>
<g clip-path="url(#clip2_94_1444)">
<rect x="179.938" y="517.941" width="85.0286" height="85.0286" rx="10" transform="rotate(-27.5471 179.938 517.941)" fill="#0B0B0B"/>
<g clip-path="url(#clip3_94_1444)">
<path d="M258.995 535.562C258.086 538.942 255.821 541.767 252.64 543.432C249.458 545.101 245.847 545.352 242.558 544.17C240.952 543.595 239.535 542.714 238.356 541.596C237.202 540.497 236.281 539.158 235.659 537.68C235.051 536.239 234.733 534.695 234.73 533.151C234.726 531.643 235.011 530.13 235.58 528.68C236.695 525.841 238.794 523.527 241.514 522.102C244.233 520.678 247.327 520.278 250.292 520.977C251.803 521.339 253.205 521.966 254.435 522.832C255.701 523.718 256.785 524.859 257.619 526.183C258.476 527.54 259.045 529.06 259.286 530.638C259.528 532.242 259.438 533.912 258.995 535.562Z" fill="white"/>
<path d="M239.933 535.636C239.065 533.739 239.065 531.665 239.744 529.844C240.408 528.053 241.741 526.479 243.584 525.517C245.431 524.556 247.482 524.366 249.33 524.844C251.213 525.332 252.913 526.515 253.974 528.312C255.063 530.16 255.267 532.299 254.692 534.263C254.106 536.261 252.718 538.049 250.676 539.114C248.635 540.179 246.372 540.295 244.398 539.632C242.461 538.979 240.826 537.586 239.933 535.636Z" fill="#005385"/>
<path d="M230.7 545.209C231.089 545.923 232.039 547.215 232.935 548.146C234.83 550.113 237.108 551.66 239.709 552.714C242.379 553.798 245.227 554.302 248.157 554.183C251.239 554.06 254.228 553.26 257.003 551.803C259.78 550.349 262.142 548.348 263.999 545.882C265.764 543.535 266.979 540.906 267.613 538.093C268.23 535.349 268.262 532.594 267.732 529.914C267.469 528.579 267.065 527.27 266.524 526.015C265.994 524.792 265.338 523.624 264.572 522.533C263.067 520.394 261.196 518.628 259.023 517.262C257.029 516.007 254.852 515.13 252.547 514.637L252.548 514.634L229.373 509.816C229.354 509.811 229.332 509.805 229.313 509.8C227.79 509.488 226 510.424 225.285 511.91C224.559 513.413 225.188 514.945 226.722 515.318L226.719 515.323L236.558 517.664L215.915 528.46L215.887 528.474C214.183 529.366 213.165 531.417 213.625 533.094C214.095 534.804 215.919 535.473 217.699 534.556L217.7 534.564L228.157 529.08L217.448 554.108C217.435 554.141 217.419 554.172 217.407 554.201C216.396 556.557 217.074 559.247 218.972 560.183C220.902 561.134 223.297 559.888 224.279 557.424L229.836 543.215C229.836 543.215 230.313 544.494 230.7 545.209ZM258.995 535.562C258.086 538.942 255.821 541.767 252.64 543.432C249.458 545.101 245.847 545.352 242.558 544.17C240.952 543.595 239.535 542.714 238.356 541.596C237.202 540.497 236.281 539.158 235.659 537.68C235.051 536.239 234.733 534.695 234.73 533.151C234.726 531.643 235.011 530.13 235.58 528.68C236.695 525.841 238.794 523.526 241.514 522.102C244.233 520.678 247.327 520.278 250.292 520.977C251.803 521.339 253.205 521.966 254.435 522.832C255.701 523.718 256.785 524.859 257.619 526.183C258.476 527.54 259.045 529.06 259.286 530.638C259.528 532.242 259.438 533.912 258.995 535.562Z" fill="#FF7021"/>
</g>
</g>
<rect x="181.961" y="518.578" width="82.0286" height="82.0286" rx="8.5" transform="rotate(-27.5471 181.961 518.578)" stroke="white" stroke-width="3"/>
<rect x="180.992" y="578.055" width="64.3599" height="64.3599" rx="8.5" transform="rotate(-24.8664 180.992 578.055)" fill="#333333"/>
<rect x="180.992" y="578.055" width="64.3599" height="64.3599" rx="8.5" transform="rotate(-24.8664 180.992 578.055)" stroke="white" stroke-width="3"/>
<g clip-path="url(#clip4_94_1444)">
<path d="M226.709 616.299C230.317 614.627 231.887 610.342 230.215 606.735L227.186 600.199L220.651 603.228C217.044 604.9 215.473 609.185 217.145 612.792C218.817 616.4 223.102 617.971 226.709 616.299Z" fill="#0ACF83"/>
<path d="M211.087 599.722C209.415 596.114 210.986 591.83 214.593 590.158L221.129 587.129L227.186 600.199L220.651 603.228C217.044 604.9 212.759 603.329 211.087 599.722Z" fill="#A259FF"/>
<path d="M205.029 586.651C203.357 583.044 204.928 578.759 208.535 577.087L215.071 574.058L221.129 587.128L214.593 590.157C210.986 591.829 206.701 590.259 205.029 586.651Z" fill="#F24E1E"/>
<path d="M215.071 574.058L221.606 571.029C225.214 569.357 229.498 570.928 231.17 574.535C232.842 578.143 231.271 582.428 227.664 584.1L221.129 587.129L215.071 574.058Z" fill="#FF7262"/>
<path d="M237.228 587.606C238.9 591.213 237.329 595.498 233.722 597.17C230.114 598.842 225.83 597.271 224.158 593.664C222.486 590.056 224.056 585.771 227.664 584.099C231.271 582.427 235.556 583.998 237.228 587.606Z" fill="#1ABCFE"/>
</g>
<g clip-path="url(#clip5_94_1444)">
<rect x="62.918" y="538" width="55.9654" height="55.9654" rx="10" transform="rotate(46.9806 62.918 538)" fill="#0B0B0B"/>
<path d="M51.1836 593.645C49.0782 589.735 47.3558 586.49 47.3565 586.433C47.3568 586.377 47.6441 585.402 47.9945 584.267L48.6316 582.204L47.0189 580.428L45.4062 578.653L45.5869 570.73C45.6864 566.372 45.8165 562.762 45.8764 562.706C45.9352 562.651 49.5827 562.77 53.98 562.973L61.9754 563.342L63.5977 565.033L65.2201 566.724L67.3221 566.232C68.4783 565.96 69.4702 565.741 69.5266 565.745C69.6526 565.752 83.4402 574.511 83.4389 574.583C83.4289 574.619 81.5361 577.676 79.2114 581.394L74.9848 588.154L72.7522 588.629L70.5195 589.103L69.8918 591.298L69.2638 593.493L62.3657 597.096C54.4348 601.239 55.1197 600.891 55.064 600.809C55.0354 600.778 53.2976 597.546 51.1921 593.637L51.1836 593.645ZM55.5181 592.5C55.5578 592.344 56.4146 589.47 57.4228 586.112C58.4311 582.754 59.2582 579.984 59.2606 579.956C59.2746 579.792 50.131 569.748 50.0438 569.829C50.0085 569.862 49.9524 570.725 49.9181 571.747C49.8479 573.85 49.5875 579.914 49.5162 581.118L49.469 581.913L50.7956 584.345C52.5248 587.516 54.3967 590.975 54.8382 591.815C55.0309 592.182 55.2466 592.55 55.3186 592.632C55.4402 592.762 55.4408 592.767 55.5181 592.5ZM64.6281 591.157L69.9092 588.466L72.9581 583.384C74.635 580.588 76.0099 578.25 76.0133 578.188C76.0168 578.125 73.0812 578.736 69.4893 579.546L62.9588 581.018L61.0391 587.431C59.9835 590.958 59.1709 593.845 59.2334 593.846C59.2959 593.847 61.7236 592.636 64.6281 591.157ZM62.1107 577.174C62.3336 577.186 75.1587 574.378 75.1599 574.317C75.1487 574.305 74.1807 573.646 72.9812 572.881C70.8568 571.524 65.8031 568.284 65.1168 567.839C64.8732 567.682 64.4062 567.606 63.5079 567.581C62.8114 567.561 60.0866 567.474 57.4526 567.388C54.8186 567.302 52.644 567.25 52.6202 567.272C52.5967 567.294 54.6823 569.529 57.2551 572.238C60.5853 575.746 61.9825 577.169 62.1107 577.174Z" fill="white"/>
</g>
<rect x="62.8447" y="540.12" width="52.9654" height="52.9654" rx="8.5" transform="rotate(46.9806 62.8447 540.12)" stroke="white" stroke-width="3"/>
<rect x="65.0398" y="528.975" width="55.462" height="55.462" rx="8.5" transform="rotate(-29.0557 65.0398 528.975)" fill="#F7DF1E"/>
<rect x="65.0398" y="528.975" width="55.462" height="55.462" rx="8.5" transform="rotate(-29.0557 65.0398 528.975)" stroke="white" stroke-width="3"/>
<path d="M121.465 549.52C123.333 550.576 125.261 551.043 127.515 549.791C129.409 548.739 130.092 547.12 129.366 545.813C128.496 544.246 126.945 544.381 124.354 544.628L122.939 544.772C118.861 545.2 115.693 544.657 113.626 540.936C111.722 537.509 112.883 533.449 116.965 531.182C119.87 529.567 122.521 529.418 125.497 531.229L123.208 535.491C121.644 534.521 120.491 534.438 119.179 535.167C117.84 535.911 117.464 537.231 118.08 538.34C118.841 539.711 119.999 539.794 122.431 539.554L123.846 539.409C128.654 538.917 131.789 539.396 133.909 543.213C136.195 547.327 134.216 551.376 129.875 553.788C125.631 556.146 121.765 555.647 118.951 553.742C118.95 553.741 121.465 549.52 121.465 549.52ZM105.543 558.885C106.968 559.76 108.22 560.474 109.79 559.602C111.291 558.768 111.912 557.654 110.643 555.37L102.009 539.831L106.579 537.293L115.246 552.893C117.875 557.624 116.297 561.319 112.248 563.569C108.589 565.602 105.418 564.886 103.073 563.204L105.543 558.885Z" fill="black"/>
<g clip-path="url(#clip6_94_1444)">
<rect x="57.4688" y="479" width="51.1374" height="51.1374" rx="10" transform="rotate(39.4164 57.4688 479)" fill="#F16529"/>
<path d="M58.3316 508.12L63.6808 512.516L66.902 508.597L57.4205 500.804L56.6468 501.93L48.6994 513.494L57.161 520.449L60.3822 516.529L55.3787 512.417L58.3316 508.12Z" fill="#EBEBEB" fill-opacity="0.8"/>
<path d="M51.0387 518.726L47.2412 515.605L42.7655 522.131L48.7015 530.706L48.723 530.715L52.0399 526.68L52.0196 526.67L48.7653 522.041L51.0387 518.726Z" fill="#EBEBEB" fill-opacity="0.8"/>
<path d="M60.8243 491.025L62.7218 492.584L61.1135 494.541L62.8493 495.968L64.4576 494.011L66.3552 495.571L61.4847 501.497L59.5872 499.937L61.2181 497.953L59.4824 496.526L57.8514 498.51L55.9539 496.951L60.8243 491.025Z" fill="black" fill-opacity="0.88"/>
<path d="M67.1676 499.531L65.5302 498.185L67.1453 496.22L72.2811 500.441L70.666 502.406L69.0278 501.06L65.7725 505.021L63.9124 503.492L67.1676 499.531Z" fill="black" fill-opacity="0.88"/>
<path d="M73.0713 501.091L75.0282 502.699L74.5207 505.771L77.4346 504.677L79.3923 506.286L74.5218 512.212L72.6528 510.676L75.0668 507.738L72.0439 508.784L72.0116 508.758L72.4512 505.589L70.0371 508.526L68.2008 507.017L73.0713 501.091Z" fill="black" fill-opacity="0.88"/>
<path d="M80.5775 507.26L82.3837 508.744L79.1232 512.712L81.6626 514.799L80.0527 516.757L75.707 513.186L80.5775 507.26Z" fill="black" fill-opacity="0.88"/>
<path d="M57.1953 520.407L62.0088 524.363L57.3883 529.06L52.0614 526.653L48.7189 530.72L58.558 535.086L59.1596 534.474L68.5364 524.937L69.4945 523.966L60.408 516.498L57.1953 520.407Z" fill="white"/>
<path d="M63.6629 512.538L63.655 512.547L73.1785 520.375L73.9875 519.552L75.8132 517.697L76.7786 516.714L66.902 508.597L63.6629 512.538Z" fill="white"/>
</g>
<rect x="57.6752" y="481.111" width="48.1374" height="48.1374" rx="8.5" transform="rotate(39.4164 57.6752 481.111)" stroke="white" stroke-width="3"/>
<path d="M768 70C774.981 56.25 792.75 48 801 48" stroke="#E89773" stroke-width="5"/>
<path d="M209.401 381.52C199.066 397.491 175.703 405.915 165.277 405.212" stroke="#E89773" stroke-width="5"/>
<path d="M778.584 77.1442C788.127 69.0024 808.434 67.188 817.292 69.0534" stroke="#E89773" stroke-width="5"/>
<path d="M196.807 372.011C183.852 381.006 157.989 381.461 147 378.458" stroke="#E89773" stroke-width="5"/>
<defs>
<clipPath id="clip0_94_1444">
<rect x="248.199" y="563.474" width="73.6906" height="73.6906" rx="10" transform="rotate(-19.2322 248.199 563.474)" fill="white"/>
</clipPath>
<clipPath id="clip1_94_1444">
<rect width="64.0332" height="22.8064" fill="white" transform="translate(261.111 585.941) rotate(-19.2322)"/>
</clipPath>
<clipPath id="clip2_94_1444">
<rect x="179.938" y="517.941" width="85.0286" height="85.0286" rx="10" transform="rotate(-27.5471 179.938 517.941)" fill="white"/>
</clipPath>
<clipPath id="clip3_94_1444">
<rect width="59.7959" height="51.0367" fill="white" transform="translate(198.746 524.637) rotate(-27.5471)"/>
</clipPath>
<clipPath id="clip4_94_1444">
<rect width="28.8125" height="43.2188" fill="white" transform="translate(202 580.116) rotate(-24.8664)"/>
</clipPath>
<clipPath id="clip5_94_1444">
<rect x="62.918" y="538" width="55.9654" height="55.9654" rx="10" transform="rotate(46.9806 62.918 538)" fill="white"/>
</clipPath>
<clipPath id="clip6_94_1444">
<rect x="57.4688" y="479" width="51.1374" height="51.1374" rx="10" transform="rotate(39.4164 57.4688 479)" fill="white"/>
</clipPath>
</defs>
</svg>
