<svg width="977" height="845" viewBox="0 0 977 845" fill="none" xmlns="http://www.w3.org/2000/svg">
<g clip-path="url(#clip0_54249_1205)">
<path d="M729.817 368.449C643.828 427.995 403.281 447.313 277.011 368.449C268.617 378.356 213.057 444.056 213.057 454.016L371.326 461.3L356.083 661.639H451.787V669.562L355.48 678.272L266.663 674.71C264.622 685.075 266.663 840.158 266.663 846.697C266.663 854.869 814.696 869.988 804.924 846.697C797.577 829.183 791.771 669.562 779.27 622.756C773.431 618.006 768.551 612.968 764.876 608.374C744.456 579.391 775.605 487.613 811.79 487.613C811.757 486.378 811.726 485.146 811.697 483.916C808.337 459.716 757.793 385.084 729.817 368.449Z" fill="#2B4F8D"/>
<path d="M811.79 487.613C775.605 487.613 744.456 579.391 764.876 608.374C768.551 612.968 773.431 618.006 779.27 622.756C762.605 584.486 767.105 533.486 811.79 487.613Z" fill="white"/>
<path d="M721.924 359.79C604.813 429.043 378.167 415.265 283.416 359.79L277.011 368.449C403.281 447.313 643.828 427.995 729.817 368.449C731.796 367.079 723.737 362.401 721.924 359.79Z" fill="white"/>
<path d="M371.326 461.3L213.057 454.016L8 448.85L15.9233 654.848H45.3502C44.6717 631.919 63.5704 618.982 88.1055 614.209C107.215 610.492 129.744 611.727 149.105 617.051C176.448 624.57 197.473 640.244 193.624 661.639L355.48 669.562L356.083 661.639L371.326 461.3Z" fill="#828282"/>
<path d="M355.48 669.562L451.787 661.639H356.083L355.48 669.562Z" fill="#737373"/>
<path d="M355.48 669.562L193.624 661.639C192.55 664.722 190.642 667.351 188.085 669.562L266.663 674.71L355.48 678.272V669.562Z" fill="#535353"/>
<path d="M45.3502 654.848H15.9233V661.639H47.0791L47.0644 661.61L47.034 661.548L47.011 661.501C45.9934 659.41 45.4196 657.192 45.3502 654.848Z" fill="#535353"/>
<path d="M355.48 669.562V678.272L451.787 669.562V661.639L355.48 669.562Z" fill="#535353"/>
<path d="M283.416 359.79C288.286 342.759 296.109 320.957 296.109 293.266C296.109 265.576 276.478 267.444 266.663 271.839C272.157 268.543 285.737 259.313 296.109 248.764C309.073 235.578 232.849 226.248 251.827 226.248C270.806 226.248 296.109 204.107 296.109 178.803C296.109 158.559 296.109 56.4993 296.109 8L363.909 69.1063C415.004 62.5134 551.271 57.1229 615.153 69.1063C622.483 70.4813 686.675 8 691.908 8L703.445 178.803C705.643 194.618 716.561 229.848 746.873 229.848C752.384 229.848 733.095 248.764 713.335 248.764C716.082 256.456 723.224 271.839 729.817 271.839C738.058 271.839 703.445 278.07 703.445 293.266C703.445 321.471 725.69 357.564 721.924 359.79M283.416 359.79C378.167 415.265 604.813 429.043 721.924 359.79M283.416 359.79L277.011 368.449M721.924 359.79C723.737 362.401 731.796 367.079 729.817 368.449M277.011 368.449C403.281 447.313 643.828 427.995 729.817 368.449M277.011 368.449C268.617 378.356 213.057 444.056 213.057 454.016M729.817 368.449C757.793 385.084 808.337 459.716 811.697 483.916M213.057 454.016L371.326 461.3L356.083 661.639M213.057 454.016L8 448.85L15.9233 654.848M355.48 669.562L193.624 661.639M355.48 669.562V678.272M355.48 669.562L451.787 661.639M355.48 669.562L356.083 661.639M193.624 661.639C192.55 664.722 190.642 667.351 188.085 669.562M193.624 661.639C197.473 640.244 176.448 624.57 149.105 617.051M45.3502 654.848H15.9233M45.3502 654.848C44.6717 631.919 63.5704 618.982 88.1055 614.209M45.3502 654.848C45.4196 657.192 45.9934 659.41 47.011 661.501M15.9233 654.848V661.639H47.0791M47.0791 661.639C47.0742 661.629 47.0693 661.62 47.0644 661.61M47.0791 661.639L47.0644 661.61M188.085 669.562L266.663 674.71M188.085 669.562C177.455 695.687 62.5443 692.875 47.0644 661.61M355.48 678.272L451.787 669.562V661.639M355.48 678.272L266.663 674.71M451.787 661.639H356.083M811.79 487.613C775.605 487.613 744.456 579.391 764.876 608.374C768.551 612.968 773.431 618.006 779.27 622.756M811.79 487.613C811.757 486.378 811.726 485.146 811.697 483.916M811.79 487.613C811.929 486.566 811.893 485.327 811.697 483.916M811.79 487.613C767.105 533.486 762.605 584.486 779.27 622.756M915.585 433.603C923.476 468.036 928.863 570.614 880.656 618.247C842.022 656.421 802.836 641.927 779.27 622.756M915.585 433.603C939.415 433.603 949.804 421.083 953.721 417.432C958.199 413.257 961.804 407.221 964.366 400.198M915.585 433.603C908.606 433.603 898.658 434.919 889.043 429.957M965.871 353.179C960.229 334.766 944.974 319.902 915.585 319.902C901.67 319.902 894.117 323.656 892.056 319.902C886.992 310.68 893.884 270.284 872.616 264.208C834.499 253.317 808.69 353.713 811.697 483.916M965.871 353.179C960.969 359.546 945.713 371.514 923.906 368.449M965.871 353.179C970.448 368.117 969.497 386.135 964.366 400.198M964.366 400.198C960.25 405.517 946.82 415.387 926.035 412.321M266.663 674.71C264.622 685.075 266.663 840.158 266.663 846.697C266.663 854.869 814.696 869.988 804.924 846.697C797.577 829.183 791.771 669.562 779.27 622.756M88.1055 614.209C83.1055 620.986 79.6055 639.486 85.1055 646.486M88.1055 614.209C107.215 610.492 129.744 611.727 149.105 617.051M149.105 617.051C147.105 621.863 137.605 637.986 145.105 650.486M47.011 661.501L47.034 661.548M47.011 661.501C47.0186 661.516 47.0263 661.532 47.034 661.548M47.0644 661.61L47.034 661.548M47.0644 661.61C47.0543 661.589 47.0441 661.569 47.034 661.548" stroke="black" stroke-width="6"/>
<ellipse cx="434.143" cy="189.529" rx="6.00159" ry="6.49507" fill="black"/>
<ellipse cx="563.033" cy="189.529" rx="6.00159" ry="6.49507" fill="black"/>
<path d="M508.515 221.694C508.515 225.281 503.549 225.181 500.382 226.779C497.844 224.963 492.609 225.281 492.609 221.694C492.945 220.532 493.818 219.619 500.382 219.619C507.911 219.619 506.435 220.096 508.515 221.694Z" fill="black"/>
<path d="M450.835 237.529C455.173 238.331 459.605 233.119 459.605 238.331C459.605 246.431 499.712 248.244 500.906 226.498" stroke="black" stroke-width="6"/>
<path d="M550.974 237.529C546.636 238.331 542.204 233.119 542.204 238.331C542.204 246.431 502.097 248.244 500.903 226.498" stroke="black" stroke-width="6"/>
<g clip-path="url(#clip1_54249_1205)">
<rect x="252.305" y="559.96" width="73.6906" height="73.6906" rx="10" transform="rotate(-19.2322 252.305 559.96)" fill="#F1F1F1"/>
<g clip-path="url(#clip2_54249_1205)">
<path d="M305.978 568.271C305.921 568.291 305.87 568.325 305.831 568.37C305.792 568.416 305.765 568.471 305.754 568.529C305.742 568.588 305.747 568.648 305.766 568.705L308.618 576.879C308.646 576.959 308.633 577.044 308.577 577.109C308.55 577.14 308.514 577.165 308.474 577.178C308.435 577.192 308.392 577.195 308.35 577.188L306.734 576.889C306.616 576.867 306.494 576.876 306.381 576.915C306.267 576.955 306.166 577.024 306.087 577.114L301.779 582.069C301.618 582.254 301.573 582.518 301.654 582.748L303.801 588.903C303.881 589.133 304.077 589.301 304.318 589.345L310.773 590.546C310.891 590.568 311.013 590.559 311.126 590.519C311.24 590.479 311.341 590.411 311.42 590.32L315.727 585.365C315.806 585.275 315.86 585.165 315.883 585.048C315.905 584.93 315.897 584.809 315.857 584.697L310.504 569.353C310.464 569.238 310.393 569.135 310.3 569.056C310.206 568.977 310.093 568.924 309.972 568.903L306.151 568.247C306.091 568.236 306.033 568.251 305.978 568.271ZM274.041 588.03C273.94 588.07 273.85 588.122 273.776 588.207L269.468 593.161C269.389 593.252 269.336 593.361 269.313 593.479C269.29 593.596 269.299 593.717 269.339 593.83L272.231 602.086C272.271 602.201 272.368 602.287 272.49 602.307C272.549 602.319 272.61 602.315 272.667 602.295C272.724 602.275 272.775 602.24 272.813 602.194L275.372 599.264C275.532 599.075 275.592 598.822 275.512 598.592L274.166 594.735C274.086 594.504 274.135 594.251 274.296 594.066L275.383 592.812C275.461 592.721 275.563 592.653 275.676 592.614C275.787 592.575 275.911 592.563 276.03 592.586L277.661 592.892C277.779 592.914 277.889 592.966 277.98 593.044C278.071 593.122 278.139 593.222 278.178 593.335L279.524 597.192C279.604 597.422 279.81 597.584 280.052 597.631L283.878 598.334C283.937 598.346 283.998 598.342 284.055 598.322C284.112 598.302 284.163 598.268 284.201 598.221C284.241 598.176 284.267 598.121 284.279 598.063C284.29 598.004 284.286 597.943 284.266 597.887L281.395 589.624C281.356 589.511 281.288 589.41 281.197 589.333C281.106 589.255 280.996 589.202 280.878 589.181L274.423 587.981C274.314 587.96 274.211 587.976 274.106 588.008L274.041 588.03ZM322.423 571.235C322.31 571.275 322.21 571.341 322.129 571.434L317.822 576.389C317.743 576.479 317.689 576.589 317.666 576.706C317.643 576.823 317.652 576.944 317.692 577.057L319.839 583.212C319.92 583.443 320.124 583.607 320.367 583.651L326.756 584.802C326.992 584.844 327.236 584.769 327.396 584.59L330.009 581.677C330.092 581.585 330.125 581.455 330.085 581.339C330.066 581.283 330.031 581.232 329.986 581.193C329.94 581.154 329.885 581.128 329.826 581.118L323.339 579.929C323.218 579.907 323.106 579.816 323.066 579.701L322.395 577.777C322.355 577.662 322.39 577.532 322.47 577.439L323.817 575.891C323.856 575.845 323.907 575.811 323.964 575.791C324.021 575.771 324.082 575.767 324.141 575.778L326.158 576.153C326.217 576.164 326.272 576.19 326.318 576.229C326.363 576.268 326.397 576.318 326.417 576.374L326.946 577.891C326.966 577.948 327 577.998 327.045 578.037C327.091 578.076 327.146 578.102 327.205 578.113C327.326 578.135 327.448 578.093 327.528 578L330.104 575.016C330.183 574.925 330.237 574.816 330.259 574.698C330.282 574.581 330.273 574.46 330.234 574.347L329.716 572.862C329.636 572.633 329.44 572.465 329.199 572.419L322.776 571.208C322.658 571.186 322.536 571.195 322.423 571.235ZM307.936 581.443C307.964 581.434 307.999 581.429 308.03 581.434L310.243 581.849C310.303 581.86 310.358 581.9 310.378 581.958L311.116 584.073C311.136 584.131 311.118 584.196 311.078 584.242L309.603 585.944C309.583 585.966 309.558 585.983 309.529 585.993C309.501 586.003 309.47 586.005 309.441 586L307.228 585.586C307.168 585.574 307.113 585.534 307.093 585.477L306.355 583.361C306.335 583.304 306.353 583.238 306.393 583.192L307.868 581.491C307.886 581.469 307.909 581.453 307.936 581.443L307.936 581.443Z" fill="#404137"/>
<path d="M290.221 582.434C290.109 582.473 290.008 582.54 289.928 582.632L285.616 587.576C285.455 587.761 285.41 588.025 285.49 588.255L287.637 594.41C287.718 594.64 287.913 594.807 288.155 594.853L294.61 596.052C294.728 596.075 294.85 596.066 294.963 596.026C295.077 595.986 295.178 595.918 295.257 595.827L299.564 590.872C299.643 590.782 299.697 590.672 299.719 590.555C299.742 590.437 299.733 590.316 299.694 590.204L297.547 584.049C297.466 583.819 297.267 583.64 297.026 583.596L290.575 582.406C290.457 582.384 290.335 582.394 290.221 582.434ZM324.317 576.699C324.295 576.707 324.272 576.715 324.256 576.733L323.429 577.692C323.414 577.709 323.403 577.731 323.398 577.753C323.393 577.776 323.395 577.8 323.402 577.822L323.812 578.997C323.827 579.041 323.867 579.073 323.914 579.081L325.154 579.308C325.201 579.316 325.242 579.302 325.273 579.266L326.103 578.317C326.119 578.3 326.129 578.279 326.134 578.256C326.139 578.234 326.138 578.21 326.131 578.188L325.72 577.013C325.712 576.991 325.699 576.972 325.681 576.957C325.663 576.942 325.641 576.932 325.618 576.928L324.374 576.691C324.351 576.687 324.338 576.692 324.317 576.699Z" fill="#83CD29"/>
</g>
</g>
<rect x="254.215" y="560.882" width="70.6906" height="70.6906" rx="8.5" transform="rotate(-19.2322 254.215 560.882)" stroke="#F1F1F1" stroke-opacity="0.8" stroke-width="3"/>
<g clip-path="url(#clip3_54249_1205)">
<rect x="184.043" y="514.428" width="85.0286" height="85.0286" rx="10" transform="rotate(-27.5471 184.043 514.428)" fill="#0B0B0B"/>
<g clip-path="url(#clip4_54249_1205)">
<path d="M263.1 532.048C262.191 535.429 259.926 538.253 256.745 539.919C253.563 541.587 249.953 541.838 246.664 540.656C245.057 540.081 243.64 539.2 242.462 538.082C241.307 536.983 240.387 535.644 239.765 534.167C239.156 532.725 238.838 531.182 238.836 529.637C238.831 528.129 239.116 526.617 239.685 525.167C240.801 522.327 242.899 520.013 245.619 518.588C248.339 517.164 251.433 516.764 254.397 517.464C255.909 517.826 257.31 518.453 258.541 519.319C259.806 520.204 260.891 521.345 261.725 522.669C262.582 524.027 263.15 525.547 263.391 527.125C263.633 528.729 263.544 530.398 263.1 532.048Z" fill="white"/>
<path d="M244.038 532.122C243.17 530.225 243.171 528.152 243.849 526.33C244.514 524.539 245.846 522.965 247.69 522.003C249.537 521.043 251.588 520.852 253.436 521.33C255.319 521.818 257.018 523.002 258.08 524.798C259.168 526.646 259.372 528.786 258.798 530.749C258.212 532.747 256.823 534.535 254.782 535.6C252.74 536.665 250.477 536.781 248.503 536.119C246.567 535.465 244.931 534.072 244.038 532.122Z" fill="#005385"/>
<path d="M234.806 541.695C235.194 542.409 236.144 543.701 237.041 544.632C238.935 546.599 241.214 548.147 243.814 549.201C246.484 550.285 249.333 550.788 252.263 550.67C255.345 550.547 258.333 549.746 261.109 548.29C263.886 546.836 266.247 544.834 268.105 542.369C269.87 540.021 271.084 537.392 271.719 534.579C272.335 531.835 272.367 529.08 271.838 526.401C271.574 525.065 271.17 523.756 270.629 522.502C270.099 521.279 269.444 520.11 268.677 519.019C267.172 516.881 265.302 515.115 263.128 513.748C261.135 512.493 258.957 511.617 256.652 511.124L256.653 511.12L233.478 506.302C233.459 506.297 233.437 506.291 233.419 506.287C231.895 505.974 230.106 506.91 229.39 508.397C228.665 509.899 229.293 511.431 230.827 511.805L230.824 511.809L240.664 514.15L220.021 524.946L219.993 524.961C218.289 525.853 217.27 527.903 217.731 529.58C218.201 531.29 220.024 531.959 221.804 531.042L221.806 531.05L232.263 525.567L221.553 550.594C221.54 550.627 221.524 550.658 221.513 550.687C220.501 553.043 221.18 555.734 223.077 556.67C225.007 557.621 227.403 556.374 228.385 553.91L233.941 539.701C233.941 539.701 234.419 540.98 234.806 541.695ZM263.1 532.048C262.191 535.429 259.926 538.253 256.745 539.919C253.563 541.587 249.953 541.838 246.664 540.656C245.057 540.081 243.64 539.2 242.462 538.082C241.307 536.983 240.387 535.644 239.765 534.167C239.156 532.725 238.838 531.182 238.836 529.637C238.831 528.129 239.116 526.617 239.685 525.167C240.801 522.327 242.899 520.013 245.619 518.588C248.339 517.164 251.433 516.764 254.397 517.464C255.909 517.826 257.31 518.453 258.541 519.319C259.806 520.204 260.891 521.345 261.725 522.669C262.582 524.027 263.15 525.547 263.391 527.125C263.633 528.729 263.544 530.398 263.1 532.048Z" fill="#FF7021"/>
</g>
</g>
<rect x="186.067" y="515.064" width="82.0286" height="82.0286" rx="8.5" transform="rotate(-27.5471 186.067 515.064)" stroke="white" stroke-width="3"/>
<rect x="185.097" y="574.542" width="64.3599" height="64.3599" rx="8.5" transform="rotate(-24.8664 185.097 574.542)" fill="#333333"/>
<rect x="185.097" y="574.542" width="64.3599" height="64.3599" rx="8.5" transform="rotate(-24.8664 185.097 574.542)" stroke="white" stroke-width="3"/>
<g clip-path="url(#clip5_54249_1205)">
<path d="M230.814 612.785C234.422 611.113 235.993 606.829 234.321 603.221L231.292 596.686L224.757 599.715C221.149 601.387 219.578 605.671 221.25 609.279C222.922 612.886 227.207 614.457 230.814 612.785Z" fill="#0ACF83"/>
<path d="M215.192 596.208C213.52 592.601 215.091 588.316 218.699 586.644L225.234 583.615L231.292 596.686L224.757 599.715C221.149 601.387 216.864 599.816 215.192 596.208Z" fill="#A259FF"/>
<path d="M209.134 583.138C207.462 579.53 209.033 575.245 212.641 573.573L219.176 570.544L225.234 583.615L218.699 586.644C215.091 588.316 210.806 586.745 209.134 583.138Z" fill="#F24E1E"/>
<path d="M219.176 570.544L225.711 567.515C229.319 565.843 233.604 567.414 235.276 571.022C236.948 574.629 235.377 578.914 231.769 580.586L225.234 583.615L219.176 570.544Z" fill="#FF7262"/>
<path d="M241.334 584.092C243.006 587.7 241.435 591.985 237.827 593.657C234.22 595.329 229.935 593.758 228.263 590.15C226.591 586.543 228.162 582.258 231.769 580.586C235.377 578.914 239.662 580.485 241.334 584.092Z" fill="#1ABCFE"/>
</g>
<g clip-path="url(#clip6_54249_1205)">
<rect x="67.0235" y="534.486" width="55.9654" height="55.9654" rx="10" transform="rotate(46.9806 67.0235 534.486)" fill="#0B0B0B"/>
<path d="M55.2891 590.131C53.1836 586.221 51.4612 582.976 51.4619 582.92C51.4622 582.863 51.7496 581.888 52.0999 580.753L52.737 578.69L51.1243 576.915L49.5116 575.139L49.6923 567.216C49.7918 562.859 49.922 559.248 49.9818 559.192C50.0407 559.137 53.6881 559.257 58.0855 559.459L66.0808 559.828L67.7032 561.519L69.3255 563.211L71.4275 562.718C72.5837 562.447 73.5757 562.228 73.632 562.231C73.758 562.239 87.5457 570.997 87.5443 571.069C87.5343 571.106 85.6415 574.163 83.3169 577.881L79.0903 584.64L76.8576 585.115L74.6249 585.59L73.9972 587.784L73.3693 589.979L66.4711 593.583C58.5402 597.725 59.2252 597.377 59.1694 597.295C59.1408 597.264 57.403 594.033 55.2975 590.123L55.2891 590.131ZM59.6236 588.987C59.6632 588.831 60.52 585.956 61.5283 582.598C62.5366 579.24 63.3636 576.47 63.366 576.443C63.38 576.278 54.2364 566.234 54.1493 566.315C54.1139 566.348 54.0579 567.211 54.0236 568.233C53.9533 570.336 53.6929 576.401 53.6216 577.604L53.5744 578.399L54.9011 580.832C56.6303 584.003 58.5022 587.461 58.9437 588.301C59.1363 588.668 59.352 589.036 59.4241 589.118C59.5456 589.248 59.5462 589.253 59.6236 588.987ZM68.7335 587.643L74.0147 584.952L77.0636 579.87C78.7404 577.075 80.1154 574.736 80.1188 574.674C80.1222 574.611 77.1866 575.222 73.5947 576.032L67.0642 577.504L65.1445 583.917C64.0889 587.445 63.2763 590.331 63.3388 590.332C63.4013 590.333 65.829 589.123 68.7335 587.643ZM66.2162 573.66C66.439 573.672 79.2641 570.865 79.2654 570.804C79.2541 570.792 78.2861 570.132 77.0867 569.367C74.9622 568.01 69.9085 564.771 69.2223 564.326C68.9786 564.168 68.5117 564.092 67.6133 564.067C66.9169 564.047 64.1921 563.961 61.558 563.875C58.924 563.788 56.7495 563.736 56.7257 563.758C56.7021 563.78 58.7877 566.015 61.3605 568.725C64.6907 572.232 66.088 573.655 66.2162 573.66Z" fill="white"/>
</g>
<rect x="66.9502" y="536.607" width="52.9654" height="52.9654" rx="8.5" transform="rotate(46.9806 66.9502 536.607)" stroke="white" stroke-width="3"/>
<rect x="69.1452" y="525.462" width="55.462" height="55.462" rx="8.5" transform="rotate(-29.0557 69.1452 525.462)" fill="#F7DF1E"/>
<rect x="69.1452" y="525.462" width="55.462" height="55.462" rx="8.5" transform="rotate(-29.0557 69.1452 525.462)" stroke="white" stroke-width="3"/>
<path d="M125.571 546.007C127.439 547.062 129.366 547.53 131.621 546.277C133.514 545.225 134.198 543.607 133.471 542.299C132.601 540.733 131.05 540.868 128.459 541.114L127.045 541.259C122.967 541.686 119.798 541.143 117.731 537.422C115.827 533.995 116.989 529.936 121.07 527.668C123.976 526.054 126.627 525.904 129.602 527.716L127.313 531.978C125.749 531.008 124.597 530.924 123.284 531.653C121.946 532.397 121.569 533.717 122.185 534.827C122.947 536.197 124.105 536.281 126.537 536.041L127.951 535.895C132.759 535.403 135.894 535.883 138.015 539.699C140.3 543.813 138.321 547.863 133.98 550.275C129.736 552.633 125.871 552.134 123.056 550.228C123.056 550.227 125.571 546.007 125.571 546.007ZM109.648 555.372C111.074 556.246 112.325 556.96 113.895 556.088C115.396 555.254 116.017 554.141 114.748 551.856L106.115 536.318L110.684 533.779L119.351 549.379C121.98 554.111 120.403 557.806 116.353 560.056C112.694 562.088 109.523 561.372 107.179 559.69L109.648 555.372Z" fill="black"/>
<g clip-path="url(#clip7_54249_1205)">
<rect x="61.5743" y="475.486" width="51.1374" height="51.1374" rx="10" transform="rotate(39.4164 61.5743 475.486)" fill="#F16529"/>
<path d="M62.4371 504.606L67.7862 509.002L71.0075 505.083L61.5259 497.29L60.7523 498.416L52.8049 509.981L61.2665 516.935L64.4877 513.016L59.4841 508.903L62.4371 504.606Z" fill="#EBEBEB" fill-opacity="0.8"/>
<path d="M55.1441 515.213L51.3467 512.092L46.8709 518.618L52.8069 527.192L52.8284 527.202L56.1454 523.166L56.1251 523.157L52.8708 518.528L55.1441 515.213Z" fill="#EBEBEB" fill-opacity="0.8"/>
<path d="M64.9297 487.511L66.8273 489.071L65.2189 491.028L66.9547 492.454L68.563 490.497L70.4606 492.057L65.5902 497.983L63.6926 496.423L65.3236 494.439L63.5878 493.012L61.9569 494.997L60.0594 493.437L64.9297 487.511Z" fill="black" fill-opacity="0.88"/>
<path d="M71.2731 496.017L69.6357 494.672L71.2508 492.706L76.3866 496.928L74.7715 498.893L73.1333 497.546L69.878 501.507L68.0179 499.978L71.2731 496.017Z" fill="black" fill-opacity="0.88"/>
<path d="M77.1767 497.577L79.1337 499.185L78.6261 502.257L81.54 501.163L83.4977 502.772L78.6272 508.698L76.7582 507.162L79.1723 504.225L76.1493 505.27L76.117 505.244L76.5566 502.075L74.1426 505.012L72.3062 503.503L77.1767 497.577Z" fill="black" fill-opacity="0.88"/>
<path d="M84.6829 503.746L86.4892 505.231L83.2286 509.198L85.768 511.285L84.1581 513.244L79.8125 509.672L84.6829 503.746Z" fill="black" fill-opacity="0.88"/>
<path d="M61.3007 516.893L66.1143 520.85L61.4938 525.546L56.1669 523.14L52.8244 527.207L62.6635 531.572L63.2651 530.96L72.6418 521.424L73.5999 520.452L64.5135 512.984L61.3007 516.893Z" fill="white"/>
<path d="M67.7684 509.024L67.7605 509.034L77.284 516.861L78.0929 516.038L79.9186 514.183L80.884 513.201L71.0074 505.083L67.7684 509.024Z" fill="white"/>
</g>
<rect x="61.7807" y="477.598" width="48.1374" height="48.1374" rx="8.5" transform="rotate(39.4164 61.7807 477.598)" stroke="white" stroke-width="3"/>
<path d="M772.105 70.4863C779.086 56.7363 796.855 48.4863 805.105 48.4863" stroke="#E89773" stroke-width="5"/>
<path d="M213.507 382.007C203.172 397.977 179.808 406.401 169.382 405.698" stroke="#E89773" stroke-width="5"/>
<path d="M782.69 77.6305C792.232 69.4887 812.539 67.6744 821.398 69.5398" stroke="#E89773" stroke-width="5"/>
<path d="M200.913 372.497C187.958 381.493 162.095 381.947 151.105 378.944" stroke="#E89773" stroke-width="5"/>
</g>
<defs>
<clipPath id="clip0_54249_1205">
<rect width="976" height="845" fill="white" transform="translate(0.908569)"/>
</clipPath>
<clipPath id="clip1_54249_1205">
<rect x="252.305" y="559.96" width="73.6906" height="73.6906" rx="10" transform="rotate(-19.2322 252.305 559.96)" fill="white"/>
</clipPath>
<clipPath id="clip2_54249_1205">
<rect width="64.0332" height="22.8064" fill="white" transform="translate(265.217 582.428) rotate(-19.2322)"/>
</clipPath>
<clipPath id="clip3_54249_1205">
<rect x="184.043" y="514.428" width="85.0286" height="85.0286" rx="10" transform="rotate(-27.5471 184.043 514.428)" fill="white"/>
</clipPath>
<clipPath id="clip4_54249_1205">
<rect width="59.7959" height="51.0367" fill="white" transform="translate(202.852 521.124) rotate(-27.5471)"/>
</clipPath>
<clipPath id="clip5_54249_1205">
<rect width="28.8125" height="43.2188" fill="white" transform="translate(206.105 576.602) rotate(-24.8664)"/>
</clipPath>
<clipPath id="clip6_54249_1205">
<rect x="67.0235" y="534.486" width="55.9654" height="55.9654" rx="10" transform="rotate(46.9806 67.0235 534.486)" fill="white"/>
</clipPath>
<clipPath id="clip7_54249_1205">
<rect x="61.5743" y="475.486" width="51.1374" height="51.1374" rx="10" transform="rotate(39.4164 61.5743 475.486)" fill="white"/>
</clipPath>
</defs>
</svg>
