<svg width="33" height="30" viewBox="0 0 33 30" fill="none" xmlns="http://www.w3.org/2000/svg">
<g clip-path="url(#clip0_54210_1061)">
<path d="M16.5 16.225C20.8513 16.225 24.3787 13.0183 24.3787 9.06252C24.3787 5.10679 20.8513 1.90002 16.5 1.90002C12.1487 1.90002 8.62125 5.10679 8.62125 9.06252C8.62125 13.0183 12.1487 16.225 16.5 16.225Z" stroke="white" stroke-width="3" stroke-miterlimit="10"/>
<path d="M2.0625 29.35L2.57125 26.7875C3.17226 23.8281 4.89464 21.1536 7.43917 19.2285C9.98371 17.3035 13.1896 16.2497 16.5 16.25C19.8143 16.2507 23.0234 17.3081 25.5685 19.2382C28.1135 21.1682 29.8335 23.8485 30.4287 26.8125L30.9375 29.375" stroke="white" stroke-width="3" stroke-miterlimit="10"/>
</g>
<defs>
<clipPath id="clip0_54210_1061">
<rect width="33" height="30" fill="white"/>
</clipPath>
</defs>
</svg>
