<svg width="22" height="22" viewBox="0 0 22 22" fill="none" xmlns="http://www.w3.org/2000/svg">
<path fill-rule="evenodd" clip-rule="evenodd" d="M0.393423 0.39324C0.75954 0.027123 1.35313 0.0271233 1.71925 0.39324L11 9.67402L20.2808 0.39324C20.6469 0.0271237 21.2405 0.027123 21.6066 0.39324C21.9727 0.759357 21.9727 1.35295 21.6066 1.71907L12.3258 10.9998L21.6066 20.2806C21.9727 20.6467 21.9727 21.2403 21.6066 21.6064C21.2405 21.9726 20.6469 21.9726 20.2808 21.6064L11 12.3257L1.71925 21.6064C1.35313 21.9726 0.75954 21.9726 0.393423 21.6064C0.0273061 21.2403 0.0273064 20.6467 0.393423 20.2806L9.6742 10.9998L0.393423 1.71907C0.0273064 1.35295 0.0273061 0.759357 0.393423 0.39324Z" fill="white"/>
</svg>
