<svg width="69" height="52" viewBox="0 0 69 52" fill="none" xmlns="http://www.w3.org/2000/svg">
<path d="M57.2909 50.7401C57.4235 51.1325 57.849 51.3432 58.2415 51.2107L64.6367 49.0511C65.0291 48.9186 65.2398 48.493 65.1073 48.1006C64.9748 47.7081 64.5492 47.4974 64.1568 47.6299L58.4721 49.5496L56.5525 43.8649C56.42 43.4725 55.9944 43.2618 55.602 43.3943C55.2095 43.5268 54.9988 43.9524 55.1313 44.3449L57.2909 50.7401ZM1.50223 22.0006L1.70479 22.7227C22.1635 16.984 35.8167 15.9239 44.7942 17.4891C53.7228 19.0459 57.9753 23.1829 59.8017 27.8961C61.6561 32.6814 61.0724 38.2172 59.9765 42.6319C59.4316 44.827 58.7673 46.7168 58.2392 48.0572C57.9754 48.7269 57.7461 49.2582 57.5836 49.6203C57.5024 49.8013 57.4379 49.94 57.3941 50.0325C57.3723 50.0787 57.3556 50.1134 57.3447 50.136C57.3392 50.1473 57.3351 50.1556 57.3326 50.1609C57.3313 50.1635 57.3304 50.1654 57.3298 50.1664C57.3296 50.167 57.3295 50.1672 57.3293 50.1675C57.3293 50.1675 57.3294 50.1673 58.0015 50.5001C58.6736 50.8329 58.6739 50.8323 58.6743 50.8316C58.6745 50.8311 58.675 50.8301 58.6755 50.8291C58.6765 50.827 58.6779 50.8242 58.6797 50.8206C58.6832 50.8134 58.6883 50.8031 58.6947 50.7897C58.7076 50.763 58.7263 50.7242 58.7502 50.6737C58.7979 50.5727 58.8666 50.4249 58.9521 50.2344C59.1231 49.8534 59.3616 49.3006 59.6348 48.607C60.1809 47.2209 60.868 45.2669 61.4323 42.9933C62.555 38.4705 63.2211 32.5688 61.2004 27.3541C59.1517 22.0674 54.4042 17.642 45.0519 16.0114C35.7485 14.3893 21.8399 15.5169 1.29967 21.2785L1.50223 22.0006Z" fill="white"/>
</svg>
