<svg width="28" height="26" viewBox="0 0 28 26" fill="none" xmlns="http://www.w3.org/2000/svg">
<ellipse cx="14" cy="13" rx="14" ry="13" fill="white"/>
<path d="M14.1109 11.9136C15.942 11.0832 17.9537 11.2083 19.3527 12.1459C20.8893 12.1927 22.2398 12.7218 22.7672 13.8839C23.2664 14.9847 22.8523 16.2713 21.9846 17.4044C21.1049 18.5528 19.6947 19.6418 17.971 20.4237C16.2471 21.2057 14.4983 21.5496 13.0546 21.4549C11.6305 21.3615 10.3897 20.8255 9.89031 19.7247C9.3632 18.5621 9.85481 17.1968 10.8324 16.0097C11.0501 14.3395 12.2797 12.7442 14.1109 11.9136ZM14.4497 12.6606C12.7947 13.4113 11.7663 14.8389 11.6307 16.2212L11.618 16.3492L11.5348 16.447C10.5734 17.5755 10.2972 18.6353 10.6374 19.3859C10.9513 20.0778 11.8044 20.5506 13.1079 20.6362C14.392 20.7204 16.0064 20.4141 17.6322 19.6767C19.2578 18.9392 20.5511 17.9267 21.3335 16.9051C22.1277 15.868 22.3339 14.9147 22.0201 14.2227C21.6795 13.4724 20.7001 12.9822 19.2179 12.962L19.0894 12.9602L18.9847 12.8855C17.8572 12.0767 16.1048 11.9101 14.4497 12.6606ZM4.96805 13.1922C5.346 12.6645 5.95212 12.4097 6.58317 12.3888C7.21376 12.3682 7.89348 12.5769 8.48521 13.0005C9.07686 13.4242 9.49307 14.0001 9.6767 14.6037C9.86037 15.2078 9.81467 15.8639 9.43687 16.3917C9.05889 16.9195 8.45291 17.1743 7.82175 17.1951C7.19111 17.2158 6.5115 17.0071 5.91971 16.5834C5.32807 16.1597 4.9118 15.5839 4.72822 14.9803C4.54454 14.3761 4.59019 13.7201 4.96805 13.1922ZM18.9493 6.11695C19.3806 5.65594 19.9704 5.36723 20.6163 5.43048C21.2625 5.49385 21.786 5.89168 22.1196 6.42786C22.4528 6.96356 22.6119 7.65614 22.5409 8.38035C22.4699 9.10462 22.1792 9.75353 21.7483 10.2144C21.3168 10.6755 20.726 10.9637 20.0799 10.9003C19.434 10.8369 18.9115 10.4395 18.5779 9.90344C18.2446 9.36763 18.0842 8.67488 18.1553 7.95047C18.2264 7.22607 18.5182 6.57778 18.9493 6.11695ZM6.60984 13.2089C6.17538 13.2232 5.83379 13.393 5.63526 13.6702C5.43686 13.9475 5.38671 14.3254 5.51302 14.7412C5.63964 15.1575 5.93918 15.5888 6.39684 15.9166C6.85474 16.2444 7.36005 16.3894 7.79508 16.3751C8.2294 16.3607 8.57155 16.1918 8.77007 15.9146C8.96854 15.6373 9.01829 15.2587 8.8919 14.8428C8.76525 14.4264 8.46503 13.9956 8.00719 13.6677C7.5493 13.34 7.04484 13.1945 6.60984 13.2089ZM20.5365 6.24735C20.1972 6.21415 19.8443 6.35939 19.5474 6.6767C19.2501 6.99453 19.0272 7.46998 18.9722 8.03032C18.9172 8.59072 19.0436 9.10039 19.2735 9.46998C19.5031 9.83908 19.8208 10.051 20.1602 10.0844C20.4995 10.1176 20.8519 9.97149 21.1488 9.65412C21.4462 9.33622 21.6691 8.86103 21.7241 8.3005C21.779 7.73999 21.6527 7.23044 21.4228 6.86084C21.1931 6.49192 20.8758 6.2807 20.5365 6.24735ZM12.4395 4.90265C12.7534 4.27164 13.2903 3.77963 13.9942 3.64202C14.698 3.50447 15.3804 3.75819 15.9087 4.22447C16.4367 4.69079 16.8312 5.38365 16.9879 6.18523C17.1443 6.9866 17.0403 7.77584 16.7268 8.40647C16.4131 9.03748 15.876 9.5294 15.1722 9.6671C14.4682 9.8047 13.7848 9.55072 13.2564 9.08416C12.7287 8.61796 12.3347 7.92638 12.178 7.12518C12.0214 6.32361 12.126 5.53344 12.4395 4.90265ZM7.52471 6.57331C8.09198 6.13432 8.81611 6.05529 9.49766 6.23493C10.1787 6.41451 10.841 6.85598 11.3408 7.50172C11.8406 8.14752 12.1026 8.89967 12.1057 9.60399C12.1086 10.3086 11.8502 10.99 11.2832 11.429C10.716 11.868 9.99086 11.9473 9.30934 11.7678C8.62836 11.5881 7.96555 11.1458 7.46577 10.5001C6.96616 9.85434 6.70526 9.10253 6.70221 8.39832C6.69926 7.69352 6.95747 7.01233 7.52471 6.57331ZM14.1512 4.44688C13.7497 4.52548 13.4 4.81379 13.1739 5.26871C12.9476 5.72417 12.8587 6.32797 12.9838 6.96773C13.1089 7.60742 13.4181 8.13347 13.7993 8.47011C14.18 8.80631 14.6128 8.94101 15.0143 8.86265C15.4159 8.78415 15.7667 8.49628 15.9929 8.04131C16.2192 7.5859 16.3079 6.98203 16.183 6.34228C16.058 5.70254 15.7477 5.17706 15.3666 4.84031C14.9857 4.50392 14.5528 4.36839 14.1512 4.44688ZM9.28892 7.0277C8.79767 6.89821 8.35082 6.97217 8.02723 7.22253C7.70363 7.47299 7.52006 7.88716 7.52222 8.39525C7.52448 8.90379 7.71561 9.48337 8.11451 9.99888C8.51334 10.5141 9.02614 10.8443 9.51768 10.9741C10.009 11.1037 10.457 11.0303 10.7807 10.7798C11.1041 10.5293 11.2878 10.115 11.2857 9.60706C11.2834 9.09859 11.0913 8.51926 10.6925 8.00383C10.2935 7.48841 9.78064 7.15741 9.28892 7.0277Z" fill="black"/>
<path d="M14.1109 11.9136L13.987 11.6404L13.987 11.6404L14.1109 11.9136ZM19.3527 12.1459L19.1857 12.3951L19.2574 12.4432L19.3436 12.4458L19.3527 12.1459ZM22.7672 13.8839L23.0404 13.7599L23.0404 13.7599L22.7672 13.8839ZM21.9846 17.4044L22.2227 17.5868L22.2227 17.5868L21.9846 17.4044ZM17.971 20.4237L18.095 20.697L18.095 20.6969L17.971 20.4237ZM13.0546 21.4549L13.035 21.7543L13.035 21.7543L13.0546 21.4549ZM9.89031 19.7247L9.61708 19.8486L9.61711 19.8487L9.89031 19.7247ZM10.8324 16.0097L11.064 16.2004L11.1187 16.1339L11.1299 16.0484L10.8324 16.0097ZM14.4497 12.6606L14.3258 12.3874L14.3258 12.3874L14.4497 12.6606ZM11.6307 16.2212L11.9293 16.2509L11.9293 16.2505L11.6307 16.2212ZM11.618 16.3492L11.8465 16.5437L11.9073 16.4722L11.9165 16.3789L11.618 16.3492ZM11.5348 16.447L11.7631 16.6416L11.7632 16.6415L11.5348 16.447ZM10.6374 19.3859L10.3641 19.5097L10.3642 19.5098L10.6374 19.3859ZM13.1079 20.6362L13.0882 20.9355L13.0882 20.9355L13.1079 20.6362ZM17.6322 19.6767L17.7561 19.9499L17.7561 19.9499L17.6322 19.6767ZM21.3335 16.9051L21.5716 17.0875L21.5716 17.0875L21.3335 16.9051ZM22.0201 14.2227L22.2933 14.0988L22.2933 14.0987L22.0201 14.2227ZM19.2179 12.962L19.2137 13.262L19.2138 13.262L19.2179 12.962ZM19.0894 12.9602L18.9151 13.2044L18.9914 13.2589L19.0852 13.2602L19.0894 12.9602ZM18.9847 12.8855L18.8099 13.1293L18.8104 13.1296L18.9847 12.8855ZM4.96805 13.1922L4.72416 13.0175L4.72411 13.0176L4.96805 13.1922ZM6.58317 12.3888L6.57333 12.089L6.57326 12.089L6.58317 12.3888ZM8.48521 13.0005L8.65986 12.7566L8.65985 12.7566L8.48521 13.0005ZM9.6767 14.6037L9.96373 14.5164L9.96371 14.5163L9.6767 14.6037ZM9.43687 16.3917L9.68077 16.5664L9.68082 16.5663L9.43687 16.3917ZM7.82175 17.1951L7.83162 17.4949L7.83164 17.4949L7.82175 17.1951ZM5.91971 16.5834L5.74505 16.8273L5.74508 16.8273L5.91971 16.5834ZM4.72822 14.9803L4.44119 15.0675L4.4412 15.0676L4.72822 14.9803ZM18.9493 6.11695L18.7302 5.91198L18.7302 5.912L18.9493 6.11695ZM20.6163 5.43048L20.6456 5.13191L20.6456 5.13191L20.6163 5.43048ZM22.1196 6.42786L22.3744 6.26942L22.3743 6.26937L22.1196 6.42786ZM22.5409 8.38035L22.8395 8.40963L22.8395 8.4096L22.5409 8.38035ZM21.7483 10.2144L21.9673 10.4193L21.9674 10.4193L21.7483 10.2144ZM20.0799 10.9003L20.0506 11.1989L20.0506 11.1989L20.0799 10.9003ZM18.5779 9.90344L18.3232 10.0619L18.3232 10.062L18.5779 9.90344ZM18.1553 7.95047L17.8567 7.92119L17.8567 7.92119L18.1553 7.95047ZM6.60984 13.2089L6.59995 12.909L6.59993 12.909L6.60984 13.2089ZM5.63526 13.6702L5.39134 13.4956L5.39129 13.4956L5.63526 13.6702ZM5.51302 14.7412L5.22597 14.8284L5.226 14.8285L5.51302 14.7412ZM6.39684 15.9166L6.22216 16.1605L6.2222 16.1605L6.39684 15.9166ZM7.79508 16.3751L7.80495 16.6749L7.80502 16.6749L7.79508 16.3751ZM8.77007 15.9146L9.01396 16.0893L9.01401 16.0892L8.77007 15.9146ZM8.8919 14.8428L9.17894 14.7555L9.17892 14.7555L8.8919 14.8428ZM8.00719 13.6677L8.18184 13.4238L8.18181 13.4238L8.00719 13.6677ZM20.5365 6.24735L20.5658 5.94879L20.5657 5.94878L20.5365 6.24735ZM19.5474 6.6767L19.3283 6.47172L19.3283 6.47177L19.5474 6.6767ZM18.9722 8.03032L18.6736 8.001L18.6736 8.00104L18.9722 8.03032ZM19.2735 9.46998L19.0187 9.62841L19.0187 9.62846L19.2735 9.46998ZM20.1602 10.0844L20.1308 10.3829L20.1309 10.3829L20.1602 10.0844ZM21.1488 9.65412L21.3679 9.85908L21.3679 9.85906L21.1488 9.65412ZM21.7241 8.3005L22.0226 8.32978L22.0226 8.32977L21.7241 8.3005ZM21.4228 6.86084L21.6775 6.70236L21.6775 6.70231L21.4228 6.86084ZM12.4395 4.90265L12.1709 4.76907L12.1709 4.76912L12.4395 4.90265ZM13.9942 3.64202L13.9366 3.34759L13.9366 3.3476L13.9942 3.64202ZM15.9087 4.22447L16.1073 3.99962L16.1072 3.99956L15.9087 4.22447ZM16.9879 6.18523L17.2823 6.12774L17.2823 6.12769L16.9879 6.18523ZM16.7268 8.40647L16.9955 8.54004L16.9955 8.54001L16.7268 8.40647ZM15.1722 9.6671L15.2298 9.96153L15.2298 9.96152L15.1722 9.6671ZM13.2564 9.08416L13.0578 9.30899L13.0578 9.30904L13.2564 9.08416ZM12.178 7.12518L11.8836 7.18273L11.8836 7.18277L12.178 7.12518ZM7.52471 6.57331L7.34111 6.33605L7.34109 6.33606L7.52471 6.57331ZM9.49766 6.23493L9.57415 5.94484L9.57412 5.94484L9.49766 6.23493ZM11.3408 7.50172L11.5781 7.31811L11.5781 7.31808L11.3408 7.50172ZM12.1057 9.60399L12.4057 9.60274L12.4057 9.60267L12.1057 9.60399ZM11.2832 11.429L11.4668 11.6662L11.4668 11.6662L11.2832 11.429ZM9.30934 11.7678L9.2328 12.0579L9.23291 12.0579L9.30934 11.7678ZM7.46577 10.5001L7.22849 10.6837L7.22852 10.6837L7.46577 10.5001ZM6.70221 8.39832L6.40221 8.39958L6.40221 8.39962L6.70221 8.39832ZM14.1512 4.44688L14.0937 4.15245L14.0936 4.15247L14.1512 4.44688ZM13.1739 5.26871L12.9053 5.13517L12.9052 5.13522L13.1739 5.26871ZM12.9838 6.96773L12.6893 7.02528L12.6894 7.02533L12.9838 6.96773ZM13.7993 8.47011L13.6007 8.69497L13.6007 8.69499L13.7993 8.47011ZM15.0143 8.86265L15.0717 9.15709L15.0718 9.15708L15.0143 8.86265ZM15.9929 8.04131L16.2615 8.17486L16.2615 8.17483L15.9929 8.04131ZM16.183 6.34228L16.4774 6.28477L16.4774 6.28473L16.183 6.34228ZM15.3666 4.84031L15.5652 4.6155L15.5652 4.61545L15.3666 4.84031ZM9.28892 7.0277L9.36543 6.73762L9.36538 6.73761L9.28892 7.0277ZM8.02723 7.22253L7.84365 6.98526L7.84361 6.98529L8.02723 7.22253ZM7.52222 8.39525L7.22223 8.39653L7.22223 8.39658L7.52222 8.39525ZM8.11451 9.99888L7.87724 10.1825L7.87728 10.1825L8.11451 9.99888ZM9.51768 10.9741L9.44106 11.2642L9.44119 11.2642L9.51768 10.9741ZM10.7807 10.7798L10.9643 11.017L10.9644 11.017L10.7807 10.7798ZM11.2857 9.60706L11.5857 9.60579L11.5857 9.6057L11.2857 9.60706ZM10.6925 8.00383L10.9298 7.82024L10.9297 7.82019L10.6925 8.00383ZM14.1109 11.9136L14.2348 12.1868C15.9855 11.3928 17.8852 11.5235 19.1857 12.3951L19.3527 12.1459L19.5198 11.8967C18.0223 10.8931 15.8985 10.7735 13.987 11.6404L14.1109 11.9136ZM19.3527 12.1459L19.3436 12.4458C20.841 12.4913 22.0386 13.0042 22.494 14.0078L22.7672 13.8839L23.0404 13.7599C22.4411 12.4393 20.9376 11.894 19.3619 11.8461L19.3527 12.1459ZM22.7672 13.8839L22.494 14.0078C22.9253 14.9587 22.5877 16.1235 21.7464 17.222L21.9846 17.4044L22.2227 17.5868C23.117 16.4191 23.6076 15.0106 23.0404 13.7599L22.7672 13.8839ZM21.9846 17.4044L21.7464 17.222C20.9024 18.3239 19.535 19.3849 17.8471 20.1505L17.971 20.4237L18.095 20.6969C19.8545 19.8988 21.3075 18.7817 22.2227 17.5868L21.9846 17.4044ZM17.971 20.4237L17.8471 20.1505C16.159 20.9162 14.4595 21.2464 13.0743 21.1556L13.0546 21.4549L13.035 21.7543C14.537 21.8528 16.3352 21.4952 18.095 20.697L17.971 20.4237ZM13.0546 21.4549L13.0743 21.1556C11.6936 21.065 10.5949 20.5517 10.1635 19.6008L9.89031 19.7247L9.61711 19.8487C10.1844 21.0993 11.5674 21.658 13.035 21.7543L13.0546 21.4549ZM9.89031 19.7247L10.1635 19.6009C9.70829 18.5968 10.1114 17.3571 11.064 16.2004L10.8324 16.0097L10.6008 15.8189C9.59824 17.0364 9.0181 18.5275 9.61708 19.8486L9.89031 19.7247ZM10.8324 16.0097L11.1299 16.0484C11.3323 14.4955 12.4841 12.9809 14.2348 12.1868L14.1109 11.9136L13.987 11.6404C12.0753 12.5075 10.7679 14.1834 10.5349 15.9709L10.8324 16.0097ZM14.4497 12.6606L14.3258 12.3874C12.5887 13.1754 11.4797 14.6871 11.3322 16.1919L11.6307 16.2212L11.9293 16.2505C12.0528 14.9907 13.0008 13.6473 14.5737 12.9338L14.4497 12.6606ZM11.6307 16.2212L11.3322 16.1916L11.3195 16.3196L11.618 16.3492L11.9165 16.3789L11.9293 16.2509L11.6307 16.2212ZM11.618 16.3492L11.3896 16.1548L11.3063 16.2526L11.5348 16.447L11.7632 16.6415L11.8465 16.5437L11.618 16.3492ZM11.5348 16.447L11.3064 16.2525C10.3194 17.4112 9.95083 18.5979 10.3641 19.5097L10.6374 19.3859L10.9106 19.262C10.6435 18.6727 10.8275 17.7399 11.7631 16.6416L11.5348 16.447ZM10.6374 19.3859L10.3642 19.5098C10.7456 20.3505 11.7396 20.8469 13.0882 20.9355L13.1079 20.6362L13.1275 20.3368C11.8693 20.2542 11.1569 19.805 10.9106 19.2619L10.6374 19.3859ZM13.1079 20.6362L13.0882 20.9355C14.4307 21.0236 16.0944 20.7036 17.7561 19.9499L17.6322 19.6767L17.5083 19.4035C15.9183 20.1247 14.3533 20.4173 13.1275 20.3368L13.1079 20.6362ZM17.6322 19.6767L17.7561 19.9499C19.4176 19.1962 20.7537 18.1556 21.5716 17.0875L21.3335 16.9051L21.0953 16.7227C20.3485 17.6979 19.098 18.6823 17.5082 19.4035L17.6322 19.6767ZM21.3335 16.9051L21.5716 17.0875C22.3934 16.0144 22.6746 14.9396 22.2933 14.0988L22.0201 14.2227L21.7469 14.3466C21.9932 14.8898 21.8619 15.7216 21.0953 16.7227L21.3335 16.9051ZM22.0201 14.2227L22.2933 14.0987C21.8795 13.1872 20.7438 12.6827 19.2219 12.6621L19.2179 12.962L19.2138 13.262C20.6564 13.2816 21.4795 13.7576 21.747 14.3467L22.0201 14.2227ZM19.2179 12.962L19.2221 12.6621L19.0936 12.6603L19.0894 12.9602L19.0852 13.2602L19.2137 13.262L19.2179 12.962ZM19.0894 12.9602L19.2638 12.7161L19.1591 12.6414L18.9847 12.8855L18.8104 13.1296L18.9151 13.2044L19.0894 12.9602ZM18.9847 12.8855L19.1596 12.6417C17.9318 11.761 16.063 11.5996 14.3258 12.3874L14.4497 12.6606L14.5736 12.9338C16.1467 12.2205 17.7827 12.3924 18.8099 13.1293L18.9847 12.8855ZM4.96805 13.1922L5.21195 13.3669C5.52408 12.9311 6.03351 12.7072 6.59308 12.6887L6.58317 12.3888L6.57326 12.089C5.87072 12.1122 5.16792 12.398 4.72416 13.0175L4.96805 13.1922ZM6.58317 12.3888L6.593 12.6887C7.15208 12.6703 7.76781 12.8559 8.31057 13.2445L8.48521 13.0005L8.65985 12.7566C8.01915 12.2979 7.27544 12.066 6.57333 12.089L6.58317 12.3888ZM8.48521 13.0005L8.31056 13.2445C8.85319 13.633 9.22687 14.1558 9.38969 14.691L9.6767 14.6037L9.96371 14.5163C9.75927 13.8444 9.30052 13.2153 8.65986 12.7566L8.48521 13.0005ZM9.6767 14.6037L9.38967 14.6909C9.55256 15.2267 9.50488 15.7812 9.19291 16.2171L9.43687 16.3917L9.68082 16.5663C10.1245 15.9465 10.1682 15.1889 9.96373 14.5164L9.6767 14.6037ZM9.43687 16.3917L9.19296 16.2171C8.8808 16.6529 8.37152 16.8768 7.81187 16.8953L7.82175 17.1951L7.83164 17.4949C8.5343 17.4718 9.23698 17.1861 9.68077 16.5664L9.43687 16.3917ZM7.82175 17.1951L7.81189 16.8953C7.2528 16.9137 6.63719 16.7281 6.09435 16.3395L5.91971 16.5834L5.74508 16.8273C6.38582 17.2861 7.12942 17.518 7.83162 17.4949L7.82175 17.1951ZM5.91971 16.5834L6.09437 16.3395C5.55171 15.9509 5.17801 15.4281 5.01524 14.893L4.72822 14.9803L4.4412 15.0676C4.6456 15.7396 5.10442 16.3686 5.74505 16.8273L5.91971 16.5834ZM4.72822 14.9803L5.01525 14.893C4.85235 14.3572 4.89999 13.8027 5.212 13.3668L4.96805 13.1922L4.72411 13.0176C4.28039 13.6375 4.23674 14.395 4.44119 15.0675L4.72822 14.9803ZM18.9493 6.11695L19.1683 6.32193C19.5511 5.91284 20.054 5.67685 20.5871 5.72905L20.6163 5.43048L20.6456 5.13191C19.8868 5.05761 19.2102 5.39903 18.7302 5.91198L18.9493 6.11695ZM20.6163 5.43048L20.5871 5.72905C21.1205 5.78137 21.569 6.11077 21.8649 6.58636L22.1196 6.42786L22.3743 6.26937C22.003 5.67259 21.4044 5.20633 20.6456 5.13191L20.6163 5.43048ZM22.1196 6.42786L21.8649 6.58631C22.1603 7.06126 22.3075 7.68684 22.2424 8.35109L22.5409 8.38035L22.8395 8.4096C22.9163 7.62545 22.7454 6.86586 22.3744 6.26942L22.1196 6.42786ZM22.5409 8.38035L22.2424 8.35106C22.1772 9.0154 21.9112 9.60088 21.5291 10.0094L21.7483 10.2144L21.9674 10.4193C22.4472 9.90618 22.7626 9.19385 22.8395 8.40963L22.5409 8.38035ZM21.7483 10.2144L21.5292 10.0094C21.1466 10.4183 20.6427 10.6541 20.1092 10.6018L20.0799 10.9003L20.0506 11.1989C20.8093 11.2733 21.487 10.9326 21.9673 10.4193L21.7483 10.2144ZM20.0799 10.9003L20.1092 10.6018C19.576 10.5494 19.1286 10.2205 18.8326 9.74492L18.5779 9.90344L18.3232 10.062C18.6944 10.6585 19.2919 11.1244 20.0506 11.1989L20.0799 10.9003ZM18.5779 9.90344L18.8326 9.74497C18.5369 9.26963 18.3887 8.64382 18.4539 7.97976L18.1553 7.95047L17.8567 7.92119C17.7798 8.70595 17.9522 9.46564 18.3232 10.0619L18.5779 9.90344ZM18.1553 7.95047L18.4539 7.97976C18.519 7.3157 18.7859 6.73072 19.1684 6.3219L18.9493 6.11695L18.7302 5.912C18.2505 6.42483 17.9337 7.13643 17.8567 7.92119L18.1553 7.95047ZM6.60984 13.2089L6.59993 12.909C6.09277 12.9258 5.65511 13.1272 5.39134 13.4956L5.63526 13.6702L5.87917 13.8449C6.01247 13.6587 6.25799 13.5207 6.61975 13.5087L6.60984 13.2089ZM5.63526 13.6702L5.39129 13.4956C5.12757 13.8642 5.07861 14.3433 5.22597 14.8284L5.51302 14.7412L5.80007 14.654C5.69481 14.3075 5.74616 14.0308 5.87922 13.8448L5.63526 13.6702ZM5.51302 14.7412L5.226 14.8285C5.37333 15.3129 5.71523 15.7974 6.22216 16.1605L6.39684 15.9166L6.57152 15.6727C6.16312 15.3802 5.90594 15.0021 5.80004 14.6539L5.51302 14.7412ZM6.39684 15.9166L6.2222 16.1605C6.72932 16.5236 7.29866 16.6916 7.80495 16.6749L7.79508 16.3751L7.78522 16.0752C7.42145 16.0872 6.98017 15.9653 6.57148 15.6727L6.39684 15.9166ZM7.79508 16.3751L7.80502 16.6749C8.31138 16.6581 8.7499 16.4579 9.01396 16.0893L8.77007 15.9146L8.52618 15.7399C8.3932 15.9256 8.14743 16.0632 7.78515 16.0752L7.79508 16.3751ZM8.77007 15.9146L9.01401 16.0892C9.27801 15.7204 9.3263 15.2404 9.17894 14.7555L8.8919 14.8428L8.60486 14.93C8.71029 15.2769 8.65908 15.5542 8.52612 15.74L8.77007 15.9146ZM8.8919 14.8428L9.17892 14.7555C9.03145 14.2706 8.68866 13.7867 8.18184 13.4238L8.00719 13.6677L7.83254 13.9117C8.24139 14.2044 8.49905 14.5821 8.60488 14.9301L8.8919 14.8428ZM8.00719 13.6677L8.18181 13.4238C7.67497 13.061 7.10653 12.8923 6.59995 12.909L6.60984 13.2089L6.61972 13.5087C6.98316 13.4967 7.42362 13.619 7.83257 13.9117L8.00719 13.6677ZM20.5365 6.24735L20.5657 5.94878C20.1149 5.90467 19.675 6.1013 19.3283 6.47172L19.5474 6.6767L19.7664 6.88168C20.0137 6.61748 20.2794 6.52363 20.5073 6.54593L20.5365 6.24735ZM19.5474 6.6767L19.3283 6.47177C18.9821 6.84188 18.7345 7.38076 18.6736 8.001L18.9722 8.03032L19.2707 8.05964C19.3199 7.5592 19.5181 7.14718 19.7665 6.88164L19.5474 6.6767ZM18.9722 8.03032L18.6736 8.00104C18.6128 8.62142 18.7511 9.19809 19.0187 9.62841L19.2735 9.46998L19.5282 9.31155C19.3361 9.00269 19.2217 8.56003 19.2707 8.0596L18.9722 8.03032ZM19.2735 9.46998L19.0187 9.62846C19.2865 10.0588 19.6795 10.3386 20.1308 10.3829L20.1602 10.0844L20.1895 9.78579C19.9621 9.76344 19.7197 9.61931 19.5282 9.3115L19.2735 9.46998ZM20.1602 10.0844L20.1309 10.3829C20.5823 10.4271 21.0217 10.2291 21.3679 9.85908L21.1488 9.65412L20.9298 9.44915C20.6821 9.71387 20.4167 9.80804 20.1894 9.78578L20.1602 10.0844ZM21.1488 9.65412L21.3679 9.85906C21.7142 9.48889 21.9618 8.95026 22.0226 8.32978L21.7241 8.3005L21.4255 8.27121C21.3764 8.7718 21.1782 9.18355 20.9298 9.44917L21.1488 9.65412ZM21.7241 8.3005L22.0226 8.32977C22.0835 7.70933 21.9453 7.13274 21.6775 6.70236L21.4228 6.86084L21.168 7.01932C21.3602 7.32813 21.4746 7.77065 21.4255 8.27122L21.7241 8.3005ZM21.4228 6.86084L21.6775 6.70231C21.4096 6.27192 21.0168 5.99311 20.5658 5.94879L20.5365 6.24735L20.5071 6.54592C20.7347 6.56828 20.9767 6.71193 21.1681 7.01937L21.4228 6.86084ZM12.4395 4.90265L12.7082 5.03624C12.9901 4.46938 13.4586 4.05239 14.0517 3.93645L13.9942 3.64202L13.9366 3.3476C13.1219 3.50687 12.5166 4.07389 12.1709 4.76907L12.4395 4.90265ZM13.9942 3.64202L14.0517 3.93645C14.6446 3.82057 15.2355 4.03047 15.7101 4.44939L15.9087 4.22447L16.1072 3.99956C15.5252 3.4859 14.7513 3.18838 13.9366 3.34759L13.9942 3.64202ZM15.9087 4.22447L15.7101 4.44933C16.1845 4.86832 16.5483 5.5004 16.6934 6.24278L16.9879 6.18523L17.2823 6.12769C17.114 5.26689 16.6888 4.51327 16.1073 3.99962L15.9087 4.22447ZM16.9879 6.18523L16.6934 6.24273C16.8384 6.98505 16.7398 7.70644 16.4582 8.27293L16.7268 8.40647L16.9955 8.54001C17.3408 7.84525 17.4503 6.98815 17.2823 6.12774L16.9879 6.18523ZM16.7268 8.40647L16.4582 8.2729C16.1764 8.83969 15.7077 9.25665 15.1146 9.37268L15.1722 9.6671L15.2298 9.96152C16.0444 9.80215 16.6498 9.23528 16.9955 8.54004L16.7268 8.40647ZM15.1722 9.6671L15.1147 9.37267C14.5215 9.4886 13.9296 9.27842 13.455 8.85929L13.2564 9.08416L13.0578 9.30904C13.6399 9.82302 14.4149 10.1208 15.2298 9.96153L15.1722 9.6671ZM13.2564 9.08416L13.455 8.85934C12.9809 8.44042 12.6176 7.80957 12.4724 7.0676L12.178 7.12518L11.8836 7.18277C12.0519 8.04318 12.4765 8.79549 13.0578 9.30899L13.2564 9.08416ZM12.178 7.12518L12.4725 7.06764C12.3274 6.32528 12.4264 5.60296 12.7082 5.03619L12.4395 4.90265L12.1709 4.76912C11.8255 5.46393 11.7154 6.32194 11.8836 7.18273L12.178 7.12518ZM7.52471 6.57331L7.70831 6.81056C8.18608 6.44085 8.80866 6.36357 9.42119 6.52502L9.49766 6.23493L9.57412 5.94484C8.82356 5.74701 7.99789 5.8278 7.34111 6.33605L7.52471 6.57331ZM9.49766 6.23493L9.42116 6.52501C10.033 6.68634 10.6406 7.08722 11.1036 7.68535L11.3408 7.50172L11.5781 7.31808C11.0413 6.62473 10.3244 6.14268 9.57415 5.94484L9.49766 6.23493ZM11.3408 7.50172L11.1036 7.68532C11.5666 8.28363 11.8029 8.97271 11.8057 9.6053L12.1057 9.60399L12.4057 9.60267C12.4023 8.82663 12.1146 8.01141 11.5781 7.31811L11.3408 7.50172ZM12.1057 9.60399L11.8057 9.60523C11.8083 10.2384 11.5771 10.822 11.0995 11.1918L11.2832 11.429L11.4668 11.6662C12.1233 11.158 12.4089 10.3788 12.4057 9.60274L12.1057 9.60399ZM11.2832 11.429L11.0996 11.1918C10.6218 11.5615 9.99825 11.6391 9.38578 11.4777L9.30934 11.7678L9.23291 12.0579C9.98346 12.2556 10.8101 12.1745 11.4668 11.6662L11.2832 11.429ZM9.30934 11.7678L9.38588 11.4777C8.77418 11.3163 8.16599 10.9147 7.70301 10.3165L7.46577 10.5001L7.22852 10.6837C7.76511 11.377 8.48255 11.8599 9.2328 12.0579L9.30934 11.7678ZM7.46577 10.5001L7.70304 10.3165C7.24033 9.71845 7.00495 9.02973 7.00221 8.39702L6.70221 8.39832L6.40221 8.39962C6.40557 9.17533 6.69199 9.99023 7.22849 10.6837L7.46577 10.5001ZM6.70221 8.39832L7.00221 8.39706C6.99956 7.76365 7.23058 7.18031 7.70833 6.81055L7.52471 6.57331L7.34109 6.33606C6.68436 6.84436 6.39896 7.62338 6.40221 8.39958L6.70221 8.39832ZM14.1512 4.44688L14.0936 4.15247C13.5817 4.25268 13.1635 4.61565 12.9053 5.13517L13.1739 5.26871L13.4425 5.40225C13.6366 5.01193 13.9178 4.79827 14.2088 4.74129L14.1512 4.44688ZM13.1739 5.26871L12.9052 5.13522C12.6471 5.65479 12.5528 6.32643 12.6893 7.02528L12.9838 6.96773L13.2782 6.91019C13.1647 6.3295 13.2481 5.79355 13.4426 5.40219L13.1739 5.26871ZM12.9838 6.96773L12.6894 7.02533C12.826 7.72387 13.1657 8.31081 13.6007 8.69497L13.7993 8.47011L13.9979 8.24525C13.6705 7.95614 13.3918 7.49097 13.2782 6.91013L12.9838 6.96773ZM13.7993 8.47011L13.6007 8.69499C14.0359 9.07922 14.5602 9.25693 15.0717 9.15709L15.0143 8.86265L14.9568 8.5682C14.6654 8.62508 14.3242 8.53339 13.9978 8.24523L13.7993 8.47011ZM15.0143 8.86265L15.0718 9.15708C15.5834 9.05708 16.0029 8.69495 16.2615 8.17486L15.9929 8.04131L15.7242 7.90775C15.5304 8.29761 15.2483 8.51122 14.9567 8.56822L15.0143 8.86265ZM15.9929 8.04131L16.2615 8.17483C16.5198 7.65525 16.6139 6.98352 16.4774 6.28477L16.183 6.34228L15.8886 6.39979C16.002 6.98055 15.9187 7.51656 15.7242 7.90778L15.9929 8.04131ZM16.183 6.34228L16.4774 6.28473C16.3408 5.58565 15.9998 4.99947 15.5652 4.6155L15.3666 4.84031L15.1679 5.06512C15.4956 5.35464 15.7751 5.81943 15.8886 6.39982L16.183 6.34228ZM15.3666 4.84031L15.5652 4.61545C15.1302 4.2313 14.6058 4.05237 14.0937 4.15245L14.1512 4.44688L14.2087 4.74131C14.4999 4.68441 14.8412 4.77654 15.168 5.06516L15.3666 4.84031ZM9.28892 7.0277L9.36538 6.73761C8.80393 6.58961 8.25593 6.66627 7.84365 6.98526L8.02723 7.22253L8.21081 7.4598C8.44571 7.27806 8.79141 7.2068 9.21245 7.31779L9.28892 7.0277ZM8.02723 7.22253L7.84361 6.98529C7.43125 7.30444 7.21975 7.81592 7.22223 8.39653L7.52222 8.39525L7.82222 8.39397C7.82037 7.9584 7.97601 7.64153 8.21085 7.45977L8.02723 7.22253ZM7.52222 8.39525L7.22223 8.39658C7.2248 8.97652 7.44138 9.6192 7.87724 10.1825L8.11451 9.99888L8.35177 9.81529C7.98983 9.34754 7.82416 8.83106 7.82222 8.39392L7.52222 8.39525ZM8.11451 9.99888L7.87728 10.1825C8.31308 10.7455 8.88055 11.1161 9.44106 11.2642L9.51768 10.9741L9.59429 10.6841C9.17172 10.5725 8.7136 10.2827 8.35173 9.81524L8.11451 9.99888ZM9.51768 10.9741L9.44119 11.2642C10.0024 11.4122 10.5517 11.3364 10.9643 11.017L10.7807 10.7798L10.597 10.5425C10.3624 10.7241 10.0157 10.7952 9.59416 10.684L9.51768 10.9741ZM10.7807 10.7798L10.9644 11.017C11.3764 10.6978 11.5881 10.1863 11.5857 9.60579L11.2857 9.60706L10.9857 9.60833C10.9875 10.0436 10.8317 10.3608 10.597 10.5426L10.7807 10.7798ZM11.2857 9.60706L11.5857 9.6057C11.583 9.02552 11.3653 8.38314 10.9298 7.82024L10.6925 8.00383L10.4552 8.18741C10.8173 8.65537 10.9837 9.17166 10.9857 9.60841L11.2857 9.60706ZM10.6925 8.00383L10.9297 7.82019C10.4939 7.25721 9.92643 6.8856 9.36543 6.73762L9.28892 7.0277L9.2124 7.31778C9.63485 7.42921 10.0931 7.7196 10.4553 8.18747L10.6925 8.00383Z" fill="black"/>
</svg>
