<svg width="180" height="69" viewBox="0 0 180 69" fill="none" xmlns="http://www.w3.org/2000/svg">
<path d="M119.409 39L110.614 27.2642H107.827V39H103.876V12.8182H107.827V23.8764H109.118L119.013 12.8182H123.832L113.362 24.5412L124.229 39H119.409ZM125.008 12.8182H128.92V32.0455H129.163L142.484 12.8182H146.14V39H142.19V19.7983H141.947L128.652 39H125.008V12.8182ZM146.651 16.2188V12.8182H166.914V16.2188H158.745V39H154.808V16.2188H146.651Z" fill="white"/>
<path d="M7.488 23.664L5.76 39H1.368L4.824 12.54L15.156 29.64L25.524 12.54L28.98 39H24.588L22.824 23.664L15.156 36.66L7.488 23.664ZM32.8607 39V35.256H45.5687V39H32.8607ZM32.8607 17.544V13.8H45.5687V17.544H32.8607ZM32.8607 27.336V23.664H44.8487V27.336H32.8607ZM30.2327 13.8H34.4087V39H30.2327V13.8ZM47.9191 13.8H52.2391V39H47.9191V13.8ZM56.0551 39H50.5471V35.004H55.9471C57.1951 35.004 58.3471 34.824 59.4031 34.464C60.4591 34.104 61.3711 33.564 62.1391 32.844C62.9311 32.124 63.5431 31.224 63.9751 30.144C64.4311 29.064 64.6591 27.816 64.6591 26.4C64.6591 24.984 64.4311 23.736 63.9751 22.656C63.5431 21.576 62.9311 20.676 62.1391 19.956C61.3711 19.236 60.4591 18.696 59.4031 18.336C58.3471 17.976 57.1951 17.796 55.9471 17.796H50.5471V13.8H56.0551C58.6231 13.8 60.8791 14.328 62.8231 15.384C64.7671 16.416 66.2791 17.88 67.3591 19.776C68.4631 21.648 69.0151 23.856 69.0151 26.4C69.0151 28.944 68.4631 31.164 67.3591 33.06C66.2791 34.932 64.7671 36.396 62.8231 37.452C60.8791 38.484 58.6231 39 56.0551 39ZM70.2813 13.8H74.5653V39H70.2813V13.8ZM80.3393 32.52L81.1313 28.92H92.8313L93.6593 32.52H80.3393ZM86.9273 20.928L82.9673 30.18L82.8953 31.116L79.4033 39H74.6153L86.9273 12.396L99.2393 39H94.4513L91.0313 31.332L90.9233 30.288L86.9273 20.928Z" fill="white"/>
<path fill-rule="evenodd" clip-rule="evenodd" d="M141.282 44.9883C136.671 46.8122 132.99 43.8525 131.536 42.1133C133.839 40.4211 139.075 35.2343 136.831 34.6464C132.983 33.6383 131.69 36.6034 129.928 38.777C126.904 36.9558 119.689 33.9084 121.284 36.7943C122.642 39.2523 126.497 41.5244 128.891 42.1491C129.033 45.9961 129.879 48.9961 131.224 51.3123C135.384 57.6392 145.07 56.4973 149.393 55.1354C151.246 52.6599 153.479 50.237 154.753 50.5708C155.392 50.738 155.636 51.3578 155.64 52.1878C161.481 45.7771 172.764 32.214 176.321 35.0752C176.45 34.2512 176.289 33.4359 176.117 33.046C172.621 25.1267 148.349 42.1934 141.282 44.9883ZM159.5 41.5004C159.442 41.0282 160.701 37.4572 162.873 40.3369C163.553 41.2392 160.5 42.1133 159.5 41.5004Z" fill="black"/>
<path d="M147.146 58.4201C143.432 63.581 142.809 63.9036 141.902 65.288C141.56 65.8103 148.966 70.2575 154.086 57.636C154.751 56.2158 155.649 53.8035 155.64 52.1878C155.636 51.3578 155.392 50.738 154.753 50.5708C153.479 50.237 151.246 52.6599 149.393 55.1354C148.509 56.3162 147.712 57.5089 147.146 58.4201Z" fill="black"/>
<path d="M161.589 54.0115C163.542 56.7838 164.923 58.6163 164.895 59.7238C164.818 62.8143 169.897 57.3046 165.945 50.3767C164.54 51.7085 163.071 52.9448 161.589 54.0115Z" fill="black"/>
<path d="M154.086 57.636C156.446 57.1844 159.036 55.8498 161.589 54.0115C163.071 52.9448 164.54 51.7085 165.945 50.3767C171.31 45.2915 175.736 38.8149 176.321 35.0752C172.764 32.214 161.481 45.7771 155.64 52.1878C155.649 53.8035 154.751 56.2158 154.086 57.636Z" fill="white"/>
<path d="M147.146 58.4201C147.712 57.5089 148.509 56.3162 149.393 55.1354C145.07 56.4973 135.384 57.6392 131.224 51.3123C134.539 57.0211 140.88 58.5759 147.146 58.4201Z" fill="white"/>
<path d="M159.5 41.5004C159.442 41.0282 160.701 37.4572 162.873 40.3369C163.553 41.2392 160.5 42.1133 159.5 41.5004Z" fill="black"/>
<path d="M154.086 57.636C148.966 70.2575 141.56 65.8103 141.902 65.288C142.809 63.9036 143.432 63.581 147.146 58.4201M154.086 57.636C156.446 57.1844 159.036 55.8498 161.589 54.0115M154.086 57.636C154.751 56.2158 155.649 53.8035 155.64 52.1878M147.146 58.4201C147.712 57.5089 148.509 56.3162 149.393 55.1354M147.146 58.4201C140.88 58.5759 134.539 57.0211 131.224 51.3123M161.589 54.0115C163.542 56.7838 164.923 58.6163 164.895 59.7238C164.818 62.8143 169.897 57.3046 165.945 50.3767M161.589 54.0115C163.071 52.9448 164.54 51.7085 165.945 50.3767M165.945 50.3767C171.31 45.2915 175.736 38.8149 176.321 35.0752M155.64 52.1878C155.636 51.3578 155.392 50.738 154.753 50.5708C153.479 50.237 151.246 52.6599 149.393 55.1354M155.64 52.1878C161.481 45.7771 172.764 32.214 176.321 35.0752M176.321 35.0752C176.45 34.2512 176.289 33.4359 176.117 33.046C172.621 25.1267 148.349 42.1934 141.282 44.9883C136.671 46.8122 132.99 43.8525 131.536 42.1133C133.839 40.4211 139.075 35.2343 136.831 34.6464C132.983 33.6383 131.69 36.6034 129.928 38.777C126.904 36.9558 119.689 33.9084 121.284 36.7943C122.642 39.2523 126.497 41.5244 128.891 42.1491C129.033 45.9961 129.879 48.9961 131.224 51.3123M149.393 55.1354C145.07 56.4973 135.384 57.6392 131.224 51.3123M159.5 41.5004C159.442 41.0282 160.701 37.4572 162.873 40.3369C163.553 41.2392 160.5 42.1133 159.5 41.5004Z" stroke="white" stroke-width="2"/>
<path d="M160.081 41.2082C160.443 39.8231 161.508 39.1245 162.108 40.231C162.772 41.4575 160.785 41.549 160.081 41.2082Z" fill="black" stroke="black"/>
</svg>
